<?xml version="1.0" encoding="utf-8"?>
<svg id="color_line" height="20px" viewBox="0 0 74 74" width="20px" data-name="color line" xmlns="http://www.w3.org/2000/svg">
  <path d="M 38.049 42.047 C 37.971 42.125 37.851 42.167 37.726 42.162 C 37.687 42.162 37.649 42.159 37.61 42.153 C 37.352 42.121 37.398 41.946 37.235 41.902 C 37.096 41.89 37.069 41.763 37.069 41.763 C 36.798 41.452 36.443 41.002 36.316 40.69 L 36.044 40.69 L 35.941 40.73 C 35.956 40.937 36.187 41.527 36.517 42.016 C 36.466 42.106 36.436 42.203 36.43 42.301 C 36.424 42.463 36.468 42.622 36.561 42.766 L 36.562 42.77 L 36.56 42.776 C 36.511 42.903 36.532 43.04 36.616 43.155 L 36.616 43.469 L 38.937 43.469 L 38.937 42.757 C 38.937 42.365 38.54 42.047 38.049 42.047 Z" fill="#e1e6e9" style=""/>
  <path d="M 37.726 42.162 C 37.753 42.162 37.779 42.16 37.806 42.157 C 37.727 42.215 37.622 42.246 37.515 42.244 C 37.477 42.243 37.438 42.241 37.399 42.235 C 37.142 42.202 37.187 42.028 37.025 41.983 C 36.885 41.971 36.858 41.845 36.858 41.845 C 36.587 41.533 36.232 41.083 36.106 40.771 L 35.946 40.771 C 35.944 40.756 35.942 40.742 35.941 40.73 L 36.044 40.69 L 36.316 40.69 C 36.443 41.002 36.798 41.452 37.07 41.763 C 37.07 41.763 37.096 41.89 37.235 41.902 C 37.399 41.946 37.353 42.12 37.61 42.153 C 37.649 42.159 37.687 42.162 37.726 42.162 Z" fill="#d5d6db" style=""/>
  <path d="M 38.938 42.757 L 38.938 43.468 L 38.727 43.468 L 38.727 42.838 C 38.727 42.469 38.373 42.162 37.913 42.131 C 37.967 42.113 38.014 42.084 38.05 42.047 C 38.54 42.047 38.938 42.365 38.938 42.757 Z" fill="#d5d6db" style=""/>
  <path d="M 36.786 42.342 C 36.683 42.241 36.593 42.132 36.517 42.016 C 36.519 42.012 36.522 42.008 36.524 42.004" fill="#eeefee" style=""/>
  <path d="M 36.786 42.368 C 36.776 42.369 36.767 42.365 36.761 42.359 C 36.656 42.256 36.564 42.146 36.487 42.029 C 36.483 42.022 36.482 42.014 36.486 42.007 C 36.487 42.004 36.489 42.001 36.49 41.999 C 36.497 41.985 36.516 41.977 36.535 41.981 C 36.551 41.985 36.561 42 36.556 42.013 C 36.556 42.014 36.555 42.015 36.554 42.016 C 36.627 42.125 36.713 42.228 36.812 42.324 C 36.828 42.34 36.818 42.364 36.792 42.368 C 36.79 42.368 36.788 42.368 36.786 42.368 Z" fill="#323c6b" style=""/>
  <path d="M 37.303 40.752 L 37.142 40.31 L 37.537 40.69" fill="#d5d6db" style=""/>
  <path d="M 37.303 40.779 C 37.288 40.779 37.275 40.771 37.271 40.76 L 37.111 40.318 C 37.103 40.298 37.125 40.28 37.151 40.285 C 37.158 40.285 37.164 40.289 37.168 40.293 L 37.563 40.673 C 37.579 40.689 37.568 40.713 37.542 40.717 C 37.53 40.718 37.518 40.714 37.51 40.708 L 37.22 40.427 L 37.335 40.745 C 37.342 40.762 37.325 40.779 37.303 40.779 Z" fill="#323c6b" style=""/>
  <path d="M 37.042 40.949 L 36.707 40.633 L 37.2 40.802" fill="#d5d6db" style=""/>
  <path d="M 37.042 40.975 C 37.032 40.975 37.023 40.972 37.016 40.966 L 36.682 40.651 C 36.665 40.635 36.676 40.61 36.701 40.607 C 36.708 40.605 36.715 40.606 36.72 40.608 L 37.213 40.777 C 37.237 40.785 37.241 40.811 37.22 40.824 C 37.211 40.829 37.198 40.83 37.187 40.826 L 36.825 40.703 L 37.068 40.931 C 37.084 40.947 37.073 40.971 37.048 40.975 C 37.046 40.975 37.044 40.975 37.042 40.975 Z" fill="#323c6b" style=""/>
  <path d="M 38.162 40.752 L 38.322 40.31 L 37.929 40.69" fill="#d5d6db" style=""/>
  <path d="M 38.162 40.779 C 38.14 40.779 38.124 40.761 38.13 40.744 L 38.246 40.427 L 37.954 40.707 C 37.938 40.723 37.906 40.718 37.897 40.699 C 37.893 40.69 37.895 40.68 37.903 40.673 L 38.297 40.293 C 38.314 40.277 38.346 40.281 38.355 40.301 C 38.357 40.306 38.358 40.312 38.355 40.318 L 38.195 40.76 C 38.191 40.771 38.177 40.779 38.162 40.779 Z" fill="#323c6b" style=""/>
  <path d="M 38.423 40.949 L 38.758 40.633 L 38.265 40.802" fill="#d5d6db" style=""/>
  <path d="M 38.423 40.975 C 38.398 40.975 38.382 40.953 38.394 40.935 C 38.395 40.934 38.396 40.932 38.398 40.931 L 38.64 40.703 L 38.278 40.827 C 38.254 40.835 38.228 40.819 38.232 40.799 C 38.233 40.79 38.241 40.781 38.251 40.777 L 38.744 40.608 C 38.768 40.6 38.794 40.616 38.791 40.636 C 38.79 40.641 38.788 40.646 38.783 40.651 L 38.448 40.966 C 38.442 40.972 38.433 40.975 38.423 40.975 Z" fill="#323c6b" style=""/>
  <path d="M 37.619 40.679 L 37.732 40.183 L 37.846 40.679" fill="#d5d6db" style=""/>
  <path d="M 37.846 40.706 C 37.83 40.706 37.817 40.696 37.814 40.684 L 37.733 40.332 L 37.652 40.684 C 37.649 40.698 37.632 40.708 37.613 40.705 C 37.595 40.703 37.583 40.689 37.587 40.674 L 37.7 40.178 C 37.705 40.158 37.735 40.149 37.755 40.162 C 37.761 40.166 37.765 40.172 37.766 40.178 L 37.881 40.674 C 37.884 40.689 37.872 40.703 37.853 40.705 C 37.851 40.705 37.849 40.706 37.846 40.706 Z" fill="#323c6b" style=""/>
  <path d="M 38.363 41.311 C 38.363 41.311 38.336 41.887 37.732 41.905 C 37.13 41.887 37.102 41.311 37.102 41.311 C 37.102 41.094 37.384 40.918 37.732 40.918 C 38.08 40.918 38.363 41.094 38.363 41.311 Z" fill="#eeefee" style=""/>
  <path d="M 38.364 41.311 C 38.364 41.311 38.336 41.887 37.732 41.905 C 37.634 41.904 37.538 41.883 37.453 41.845 C 37.48 41.848 37.508 41.851 37.537 41.852 C 38.141 41.833 38.167 41.257 38.167 41.257 C 38.158 41.115 38.05 40.989 37.887 40.93 C 38.16 40.973 38.364 41.127 38.364 41.311 Z" fill="#e1e6e9" style=""/>
  <path d="M 38.458 41.069 C 38.458 41.155 38.424 41.239 38.364 41.311 C 38.364 41.094 38.082 40.918 37.733 40.918 C 37.384 40.918 37.102 41.094 37.102 41.311 C 37.042 41.239 37.008 41.155 37.008 41.069 C 37.008 40.852 37.332 40.675 37.733 40.675 C 38.133 40.675 38.458 40.852 38.458 41.069 Z" fill="#d5d6db" style=""/>
  <g fill="#323c6b" style="" transform="matrix(0.067227, 0, 0, 0.053744, 35.130642, 39.573402)">
    <path d="m48.085 32.836a.5.5 0 0 1 -.5-.5c0-3.754-3.985-6.809-8.884-6.809s-8.877 3.055-8.877 6.809a.5.5 0 0 1 -.881.324 8.565 8.565 0 0 1 -1.53-4.834c0-4.306 5.063-7.809 11.288-7.809s11.299 3.502 11.299 7.808a8.6 8.6 0 0 1 -1.528 4.833.5.5 0 0 1 -.387.178zm-9.385-11.82c-5.673 0-10.288 3.055-10.288 6.809a8.747 8.747 0 0 0 .605 2.964c.91-3.568 4.906-6.262 9.683-6.262s8.776 2.693 9.688 6.259a8.753 8.753 0 0 0 .612-2.961c0-3.754-4.623-6.809-10.3-6.809z"/>
    <path d="m56.477 57.826a.5.5 0 0 1 -.448-.279c-.015-.028-1.419-2.821-3.959-3.375-1.567-.342-3.266.228-5.062 1.689a.5.5 0 1 1 -.631-.775c2.047-1.667 4.043-2.3 5.912-1.889 3.015.661 4.571 3.777 4.637 3.91a.5.5 0 0 1 -.449.719z"/>
    <path d="m22.087 67.133a.506.506 0 0 1 -.192-.038.5.5 0 0 1 -.27-.654c.048-.114 4.874-11.447 16.071-14.285a8.876 8.876 0 0 1 10.7 5.393c.14.388 1.446 6.525 1.707 7.751a.5.5 0 0 1 -.386.593.507.507 0 0 1 -.593-.385c-.589-2.771-1.562-7.292-1.671-7.625a7.886 7.886 0 0 0 -9.51-4.757c-10.718 2.716-15.349 13.589-15.394 13.7a.5.5 0 0 1 -.462.307z"/>
    <path d="m30.484 72.982h-.046a.5.5 0 0 1 -.453-.542c.915-10.246 6.674-16.617 16.215-17.94a.5.5 0 1 1 .137.99c-11.577 1.61-14.737 10.151-15.356 17.037a.5.5 0 0 1 -.497.455z"/>
    <path d="m16.926 47.674a2.584 2.584 0 0 1 -1.813-.791 2.627 2.627 0 0 1 -.713-2.683 19.218 19.218 0 0 1 3.015-4.875.5.5 0 1 1 .748.663 18.278 18.278 0 0 0 -2.815 4.531 1.658 1.658 0 0 0 .477 1.659 1.45 1.45 0 0 0 1.489.436c1.931-.65 5.431-3.478 7.522-5.167.454-.368.856-.693 1.184-.949 1.03-.807 2.063-2.357 1.935-3.456a1.772 1.772 0 0 0 -1.279-1.676 1.675 1.675 0 0 0 -1.176.234.5.5 0 1 1 -.693-.721 2.58 2.58 0 0 1 2.151-.468 2.75 2.75 0 0 1 1.984 2.518c.176 1.517-1.06 3.377-2.312 4.358-.324.254-.723.576-1.173.939-2.282 1.844-5.73 4.63-7.832 5.337a2.179 2.179 0 0 1 -.699.111z"/>
  </g>
  <path d="M 36.377 41.793 C 36.34 41.829 36.311 41.87 36.289 41.914 C 36.269 41.949 36.306 41.989 36.354 41.985 C 36.361 41.984 36.366 41.983 36.372 41.982 C 36.406 41.97 36.437 41.953 36.461 41.93 L 36.512 42.011 C 36.449 42.049 36.379 42.079 36.305 42.103 C 36.197 42.123 36.101 42.043 36.13 41.957 C 36.18 41.866 36.246 41.78 36.326 41.704 Z" fill="#eeefee" style=""/>
  <path d="M 36.268 42.136 C 36.223 42.135 36.179 42.119 36.147 42.093 C 36.098 42.056 36.079 42 36.099 41.948 C 36.149 41.853 36.218 41.766 36.301 41.687 C 36.309 41.679 36.32 41.676 36.332 41.678 C 36.343 41.679 36.352 41.685 36.357 41.694 L 36.408 41.782 C 36.413 41.791 36.411 41.802 36.403 41.81 C 36.369 41.844 36.341 41.881 36.32 41.922 C 36.316 41.932 36.318 41.944 36.326 41.952 C 36.336 41.958 36.35 41.96 36.361 41.956 C 36.39 41.946 36.416 41.932 36.435 41.913 C 36.451 41.898 36.48 41.9 36.492 41.918 L 36.542 41.998 C 36.55 42.011 36.545 42.025 36.532 42.033 C 36.465 42.072 36.392 42.105 36.316 42.129 C 36.301 42.133 36.285 42.136 36.268 42.136 Z M 36.318 41.755 C 36.255 41.819 36.203 41.891 36.162 41.966 C 36.151 41.997 36.163 42.032 36.194 42.054 C 36.219 42.078 36.258 42.087 36.294 42.078 C 36.356 42.059 36.415 42.033 36.469 42.001 L 36.452 41.975 C 36.431 41.988 36.408 41.999 36.383 42.007 C 36.347 42.018 36.306 42.011 36.279 41.99 C 36.251 41.968 36.243 41.934 36.257 41.905 C 36.277 41.864 36.304 41.824 36.337 41.789 Z" fill="#323c6b" style=""/>
  <path d="M 38.937 43.496 L 36.616 43.496 C 36.597 43.496 36.582 43.483 36.582 43.469 L 36.582 43.161 C 36.498 43.043 36.478 42.902 36.526 42.772 C 36.435 42.626 36.39 42.463 36.397 42.3 C 36.402 42.203 36.43 42.107 36.48 42.018 C 36.147 41.521 35.923 40.935 35.907 40.732 C 35.906 40.721 35.914 40.711 35.926 40.706 L 36.03 40.665 C 36.034 40.664 36.039 40.663 36.044 40.663 L 36.316 40.663 C 36.331 40.663 36.344 40.67 36.349 40.682 C 36.489 41.03 36.919 41.544 37.096 41.748 C 37.099 41.751 37.101 41.755 37.102 41.759 C 37.103 41.763 37.127 41.866 37.239 41.876 C 37.242 41.876 37.244 41.876 37.246 41.876 C 37.314 41.899 37.368 41.941 37.399 41.995 C 37.437 42.066 37.519 42.117 37.615 42.126 C 37.651 42.132 37.689 42.135 37.726 42.136 C 37.839 42.141 37.949 42.102 38.022 42.032 C 38.028 42.025 38.038 42.021 38.049 42.021 C 38.558 42.021 38.97 42.35 38.971 42.757 L 38.971 43.468 C 38.971 43.483 38.956 43.496 38.937 43.496 Z M 36.649 43.442 L 38.904 43.442 L 38.904 42.757 C 38.903 42.385 38.531 42.082 38.065 42.074 C 37.979 42.151 37.855 42.193 37.726 42.189 C 37.685 42.189 37.644 42.186 37.604 42.179 C 37.488 42.167 37.389 42.107 37.341 42.022 C 37.319 41.982 37.278 41.948 37.227 41.929 C 37.13 41.914 37.054 41.852 37.037 41.775 C 36.818 41.521 36.437 41.056 36.292 40.717 L 36.051 40.717 L 35.976 40.747 C 36.001 40.962 36.223 41.525 36.547 42.004 C 36.551 42.011 36.552 42.021 36.548 42.028 C 36.498 42.114 36.469 42.208 36.464 42.302 C 36.458 42.459 36.501 42.615 36.59 42.755 C 36.594 42.761 36.596 42.77 36.594 42.778 L 36.592 42.785 C 36.547 42.905 36.566 43.034 36.644 43.141 C 36.647 43.145 36.649 43.15 36.649 43.155 Z" fill="#323c6b" style=""/>
  <path d="M 35.979 40.307 L 36.023 40.72 C 36.028 40.795 36.132 40.836 36.21 40.795 C 36.242 40.778 36.261 40.751 36.264 40.72 L 36.308 40.307 Z" fill="#eeefee" style=""/>
  <path d="M 36.143 40.836 C 36.063 40.836 35.997 40.786 35.989 40.723 L 35.945 40.309 C 35.944 40.294 35.959 40.281 35.979 40.281 L 36.308 40.281 C 36.328 40.281 36.343 40.294 36.342 40.309 L 36.298 40.723 C 36.292 40.787 36.224 40.837 36.143 40.836 Z M 36.016 40.334 L 36.056 40.718 C 36.06 40.755 36.098 40.782 36.143 40.782 C 36.189 40.782 36.227 40.755 36.231 40.718 L 36.271 40.334 Z" fill="#323c6b" style=""/>
  <rect fill="#eeefee" height="0.224" rx="0.527" width="0.485" x="35.901" y="40.083" style=""/>
  <path d="M 36.351 40.334 L 35.936 40.334 C 35.898 40.334 35.867 40.309 35.867 40.279 L 35.867 40.111 C 35.867 40.08 35.898 40.055 35.936 40.055 L 36.351 40.055 C 36.389 40.055 36.42 40.08 36.42 40.111 L 36.42 40.279 C 36.42 40.309 36.389 40.334 36.351 40.334 Z M 35.936 40.109 L 35.935 40.279 L 36.351 40.281 C 36.351 40.281 36.352 40.28 36.352 40.279 L 36.352 40.111 Z" fill="#323c6b" style=""/>
  <path d="M 36.28 40.083 C 36.315 40.06 36.339 40.028 36.35 39.992 C 36.361 39.916 36.337 39.84 36.281 39.778 C 36.256 39.844 36.23 39.905 36.143 39.915 C 36.094 39.839 36.085 39.752 36.118 39.671 C 36.118 39.671 35.877 39.806 35.942 40.018 C 35.952 40.044 35.971 40.066 35.997 40.083 Z" fill="#eeefee" style=""/>
  <path d="M 36.28 40.109 L 35.996 40.109 C 35.988 40.109 35.98 40.107 35.973 40.103 C 35.944 40.082 35.922 40.055 35.91 40.026 C 35.839 39.797 36.089 39.655 36.099 39.649 C 36.12 39.637 36.15 39.648 36.152 39.669 C 36.152 39.671 36.152 39.675 36.151 39.677 C 36.125 39.745 36.128 39.818 36.159 39.884 C 36.207 39.87 36.225 39.83 36.249 39.77 C 36.256 39.75 36.288 39.745 36.305 39.76 C 36.306 39.761 36.308 39.762 36.309 39.764 C 36.341 39.804 36.411 39.906 36.383 39.998 C 36.37 40.04 36.342 40.076 36.301 40.103 C 36.296 40.108 36.287 40.109 36.28 40.109 Z M 36.01 40.055 L 36.266 40.055 C 36.292 40.037 36.309 40.012 36.318 39.986 C 36.327 39.937 36.316 39.887 36.287 39.844 C 36.268 39.895 36.213 39.932 36.148 39.941 C 36.135 39.942 36.123 39.938 36.115 39.93 C 36.074 39.873 36.058 39.807 36.069 39.743 C 35.982 39.814 35.947 39.915 35.975 40.011 C 35.982 40.028 35.994 40.043 36.01 40.055 Z" fill="#323c6b" style=""/>
  <rect fill="#eeefee" height="0.233" rx="2.163" width="0.381" x="35.939" y="40.598" style=""/>
  <path d="M 36.175 40.857 L 36.085 40.857 C 35.947 40.857 35.861 40.737 35.93 40.642 C 35.961 40.598 36.021 40.571 36.085 40.571 L 36.175 40.571 C 36.313 40.571 36.399 40.69 36.33 40.785 C 36.298 40.829 36.239 40.857 36.175 40.857 Z M 36.085 40.624 C 35.999 40.624 35.944 40.699 35.987 40.758 C 36.008 40.786 36.044 40.803 36.085 40.803 L 36.175 40.803 C 36.261 40.803 36.315 40.728 36.272 40.669 C 36.251 40.641 36.215 40.624 36.175 40.624 Z" fill="#323c6b" style=""/>
  <path d="M 37.734 41.933 C 37.104 41.914 37.069 41.318 37.068 41.312 C 37.068 41.079 37.366 40.891 37.732 40.891 C 38.098 40.891 38.396 41.079 38.396 41.311 L 38.396 41.312 C 38.396 41.318 38.361 41.914 37.734 41.933 Z M 37.732 40.945 C 37.403 40.945 37.136 41.109 37.136 41.311 C 37.137 41.333 37.169 41.862 37.734 41.879 C 38.293 41.862 38.329 41.339 38.33 41.31 C 38.329 41.109 38.062 40.945 37.732 40.945 Z" fill="#323c6b" style=""/>
</svg>