<?xml version="1.0" encoding="utf-8"?>
<svg viewBox="0 0 500 500" xmlns="http://www.w3.org/2000/svg" xmlns:bx="https://boxy-svg.com">
  <rect x="197.871" y="359.934" width="63.123" height="55.439" style="fill: rgb(2, 2, 2);"/>
  <rect x="207.829" y="366" width="11.253" height="16.726" style="fill: rgb(255, 251, 251);"/>
  <rect x="243.27" y="366" width="11.253" height="16.726" style="fill: rgb(255, 255, 255);"/>
  <rect x="225.085" y="366" width="11.253" height="16.726" style="fill: rgb(255, 255, 255);"/>
  <rect x="185.146" y="344.663" width="87" height="11" style="fill: rgb(8, 8, 8);"/>
  <rect x="193.999" y="333.351" width="70" height="9" style="fill: rgb(8, 8, 8);"/>
  <rect x="203.842" y="322.713" width="52" height="7" style="fill: rgb(8, 8, 8);"/>
  <path stroke-width="0" d="M 228.403 148.896 C 230.827 148.479 233.404 148.635 235.805 149.569 C 238.467 150.604 241.805 152.607 243.544 155.289 C 245.428 158.193 246.703 163.239 246.236 166.729 C 245.79 170.051 244.008 173.74 241.189 175.814 C 237.965 178.184 231.062 179.897 227.057 179.178 C 223.459 178.532 219.932 175.517 217.972 172.785 C 216.108 170.188 214.927 166.608 215.28 163.364 C 215.669 159.789 218.538 154.675 221 152.26 C 223.074 150.226 225.889 149.328 228.403 148.896 Z" style="stroke-width: 2px; fill: rgb(6, 6, 6); stroke: rgb(2, 2, 2);"/>
  <rect x="210.683" y="184.147" width="41.094" height="79.784" style=""/>
  <rect x="210.689" y="263.435" width="14.555" height="54.961" style="fill: rgb(4, 4, 4);"/>
  <rect x="236.584" y="263.996" width="14.555" height="54.961" style="fill: rgb(4, 4, 4);"/>
  <rect x="181.772" y="197.501" width="29.297" height="13.396" style=""/>
  <rect x="168.582" y="150.855" width="13.435" height="59.856" style=""/>
  <ellipse style="" cx="174.561" cy="146.548" rx="10.962" ry="4.025"/>
  <rect x="223.945" y="179.459" width="11.987" height="6.711" style=""/>
  <g transform="matrix(0.4236, 0, 0, 0.318545, 157.349274, 103.846573)" style="">
    <path class="st0" d="M74.55,87.92C79,30.42,47.85,21.5,30.8,0c14.28,29.8-5.84,41.03-20.23,58.47 C-1.27,72.82-4.48,93.69,7.78,108.76c2.87,3.53,6.58,6.6,11.19,9.23c4.11,2.35,8.4,3.99,12.85,4.89 C3.75,99.78,43.88,91.82,36.1,72.91c13.15,10.77,30.53,33.41,15.24,49.21c26.53-6.45,34.95-25.51,31.16-48.1 C80.88,80.98,78.9,86.14,74.55,87.92L74.55,87.92z" style="clip-rule: evenodd; fill-rule: evenodd;"/>
  </g>
  <path d="M 483.613 150.157 L 488.82 164.015 L 504.674 164.314 L 492.037 173.177 L 496.63 187.22 L 483.613 178.84 L 470.596 187.22 L 475.189 173.177 L 462.552 164.314 L 478.406 164.015 Z" style="" transform="matrix(-0.973848, 0.2272, -0.2272, -0.973848, 742.577217, 212.882691)" bx:shape="star 483.613 170.645 22.145 20.488 0.4 5 1@d096e479"/>
</svg>