<?xml version="1.0" encoding="UTF-8" standalone="no"?>
<svg
   xmlns:dc="http://purl.org/dc/elements/1.1/"
   xmlns:cc="http://creativecommons.org/ns#"
   xmlns:rdf="http://www.w3.org/1999/02/22-rdf-syntax-ns#"
   xmlns:svg="http://www.w3.org/2000/svg"
   xmlns="http://www.w3.org/2000/svg"
   xml:space="preserve"
   enable-background="new 0 0 1774 1600"
   viewBox="0 0 1774 1600"
   y="0px"
   x="0px"
   id="Layer_1"
   version="1.1"><metadata
     id="metadata183"><rdf:RDF><cc:Work
         rdf:about=""><dc:format>image/svg+xml</dc:format><dc:type
           rdf:resource="http://purl.org/dc/dcmitype/StillImage" /><dc:title></dc:title></cc:Work></rdf:RDF></metadata><defs
     id="defs181"><linearGradient
       id="SVGID_1_"
       gradientUnits="userSpaceOnUse"
       x1="1238.442"
       y1="693.8141"
       x2="891.6603"
       y2="198.5585"><stop
         offset="0.0177"
         style="stop-color:#550210"
         id="stop10" /><stop
         offset="0.1405"
         style="stop-color:#B20014"
         id="stop12" /><stop
         offset="0.3056"
         style="stop-color:#7B0922"
         id="stop14" /><stop
         offset="0.3452"
         style="stop-color:#620010"
         id="stop16" /><stop
         offset="0.4529"
         style="stop-color:#890017"
         id="stop18" /><stop
         offset="0.4545"
         style="stop-color:#FFFFFF"
         id="stop20" /><stop
         offset="0.5416"
         style="stop-color:#D90522"
         id="stop22" /><stop
         offset="0.7162"
         style="stop-color:#D90522"
         id="stop24" /><stop
         offset="0.8295"
         style="stop-color:#610816"
         id="stop26" /><stop
         offset="0.8963"
         style="stop-color:#550110"
         id="stop28" /><stop
         offset="0.9427"
         style="stop-color:#550110"
         id="stop30" /><stop
         offset="0.9673"
         style="stop-color:#53050E"
         id="stop32" /><stop
         offset="1"
         style="stop-color:#441A20"
         id="stop34" /></linearGradient><radialGradient
       id="SVGID_2_"
       cx="1098.0634"
       cy="453.0284"
       r="434.6487"
       gradientUnits="userSpaceOnUse"><stop
         offset="0"
         style="stop-color:#8A949B"
         id="stop37" /><stop
         offset="0.0555"
         style="stop-color:#FFFFFF"
         id="stop39" /><stop
         offset="0.0686"
         style="stop-color:#437A7F"
         id="stop41" /><stop
         offset="0.103"
         style="stop-color:#FFFFFF"
         id="stop43" /><stop
         offset="0.1264"
         style="stop-color:#437A7F"
         id="stop45" /><stop
         offset="0.1629"
         style="stop-color:#FFFFFF"
         id="stop47" /><stop
         offset="0.1884"
         style="stop-color:#437A7F"
         id="stop49" /><stop
         offset="0.2187"
         style="stop-color:#FFFFFF"
         id="stop51" /><stop
         offset="0.2462"
         style="stop-color:#437A7F"
         id="stop53" /><stop
         offset="0.289"
         style="stop-color:#FFFFFF"
         id="stop55" /><stop
         offset="0.3227"
         style="stop-color:#437A7F"
         id="stop57" /><stop
         offset="0.3764"
         style="stop-color:#437A7F"
         id="stop59" /><stop
         offset="0.4088"
         style="stop-color:#FFFFFF"
         id="stop61" /><stop
         offset="0.4673"
         style="stop-color:#437A7F"
         id="stop63" /><stop
         offset="0.5369"
         style="stop-color:#FFFFFF"
         id="stop65" /><stop
         offset="0.5954"
         style="stop-color:#437A7F"
         id="stop67" /><stop
         offset="0.6685"
         style="stop-color:#FFFFFF"
         id="stop69" /><stop
         offset="0.7214"
         style="stop-color:#437A7F"
         id="stop71" /><stop
         offset="0.7834"
         style="stop-color:#437A7F"
         id="stop73" /><stop
         offset="0.8607"
         style="stop-color:#FFFFFF"
         id="stop75" /><stop
         offset="1"
         style="stop-color:#64747E"
         id="stop77" /></radialGradient><linearGradient
       id="SVGID_1_-8"
       gradientUnits="userSpaceOnUse"
       x1="1238.442"
       y1="693.81409"
       x2="891.66028"
       y2="198.5585"
       gradientTransform="translate(3.7926867e-4,4.1006192e-4)"><stop
         offset="0.0177"
         style="stop-color:#550210"
         id="stop10-7" /><stop
         offset="0.1405"
         style="stop-color:#B20014"
         id="stop12-4" /><stop
         offset="0.3056"
         style="stop-color:#7B0922"
         id="stop14-9" /><stop
         offset="0.3452"
         style="stop-color:#620010"
         id="stop16-0" /><stop
         offset="0.4529"
         style="stop-color:#890017"
         id="stop18-5" /><stop
         offset="0.4545"
         style="stop-color:#FFFFFF"
         id="stop20-2" /><stop
         offset="0.5416"
         style="stop-color:#D90522"
         id="stop22-0" /><stop
         offset="0.7162"
         style="stop-color:#D90522"
         id="stop24-7" /><stop
         offset="0.8295"
         style="stop-color:#610816"
         id="stop26-8" /><stop
         offset="0.8963"
         style="stop-color:#550110"
         id="stop28-0" /><stop
         offset="0.9427"
         style="stop-color:#550110"
         id="stop30-3" /><stop
         offset="0.9673"
         style="stop-color:#53050E"
         id="stop32-4" /><stop
         offset="1"
         style="stop-color:#441A20"
         id="stop34-5" /></linearGradient><radialGradient
       id="SVGID_2_-5"
       cx="1098.0634"
       cy="453.02841"
       r="434.64871"
       gradientUnits="userSpaceOnUse"
       gradientTransform="translate(3.7926867e-4,4.1006192e-4)"><stop
         offset="0"
         style="stop-color:#8A949B"
         id="stop37-3" /><stop
         offset="0.0555"
         style="stop-color:#FFFFFF"
         id="stop39-3" /><stop
         offset="0.0686"
         style="stop-color:#437A7F"
         id="stop41-4" /><stop
         offset="0.103"
         style="stop-color:#FFFFFF"
         id="stop43-6" /><stop
         offset="0.1264"
         style="stop-color:#437A7F"
         id="stop45-4" /><stop
         offset="0.1629"
         style="stop-color:#FFFFFF"
         id="stop47-8" /><stop
         offset="0.1884"
         style="stop-color:#437A7F"
         id="stop49-5" /><stop
         offset="0.2187"
         style="stop-color:#FFFFFF"
         id="stop51-3" /><stop
         offset="0.2462"
         style="stop-color:#437A7F"
         id="stop53-4" /><stop
         offset="0.289"
         style="stop-color:#FFFFFF"
         id="stop55-3" /><stop
         offset="0.3227"
         style="stop-color:#437A7F"
         id="stop57-8" /><stop
         offset="0.3764"
         style="stop-color:#437A7F"
         id="stop59-3" /><stop
         offset="0.4088"
         style="stop-color:#FFFFFF"
         id="stop61-8" /><stop
         offset="0.4673"
         style="stop-color:#437A7F"
         id="stop63-9" /><stop
         offset="0.5369"
         style="stop-color:#FFFFFF"
         id="stop65-2" /><stop
         offset="0.5954"
         style="stop-color:#437A7F"
         id="stop67-5" /><stop
         offset="0.6685"
         style="stop-color:#FFFFFF"
         id="stop69-0" /><stop
         offset="0.7214"
         style="stop-color:#437A7F"
         id="stop71-5" /><stop
         offset="0.7834"
         style="stop-color:#437A7F"
         id="stop73-4" /><stop
         offset="0.8607"
         style="stop-color:#FFFFFF"
         id="stop75-8" /><stop
         offset="1"
         style="stop-color:#64747E"
         id="stop77-3" /></radialGradient><filter
       id="filter4744"
       style="color-interpolation-filters:sRGB;"
       x="-0.2"
       y="-0.2"
       width="1.4"
       height="1.4"><feOffset
         id="feOffset4746"
         result="result3"
         in="SourceAlpha"
         dy="3"
         dx="3" /><feGaussianBlur
         id="feGaussianBlur4748"
         result="result1"
         in="result3"
         stdDeviation="8" /><feComposite
         id="feComposite4750"
         result="result2"
         in="SourceGraphic"
         in2="result1"
         operator="in" /><feComposite
         id="feComposite4752"
         in2="result2"
         in="result2"
         result="fbSourceGraphic"
         operator="out" /><feColorMatrix
         id="feColorMatrix4754"
         values="0 0 0 -1 0 0 0 0 -1 0 0 0 0 1 0 0 0 0 6 0 "
         in="fbSourceGraphic"
         result="fbSourceGraphicAlpha" /><feGaussianBlur
         id="feGaussianBlur4756"
         stdDeviation="3"
         in="fbSourceGraphicAlpha"
         result="result0" /><feSpecularLighting
         id="feSpecularLighting4758"
         in="result0"
         result="result1"
         lighting-color="rgb(255,255,255)"
         surfaceScale="5"
         specularConstant="2"
         specularExponent="20"><feDistantLight
           id="feDistantLight4760"
           elevation="35"
           azimuth="235" /></feSpecularLighting><feComposite
         id="feComposite4762"
         in2="fbSourceGraphicAlpha"
         in="result1"
         result="result2"
         operator="in" /><feComposite
         id="feComposite4764"
         result="result91"
         in2="result2"
         k3="3"
         k2="1.5"
         operator="arithmetic"
         in="fbSourceGraphic" /><feBlend
         id="feBlend4766"
         in2="result91"
         mode="screen" /><feConvolveMatrix
         id="feConvolveMatrix4768"
         divisor="3"
         targetY="1"
         targetX="1"
         kernelMatrix="2 0 1 0 1 0 0 0 0 "
         order="3 3" /></filter><linearGradient
       id="SVGID_1_-5"
       gradientUnits="userSpaceOnUse"
       x1="1238.442"
       y1="693.81409"
       x2="891.66028"
       y2="198.5585"
       gradientTransform="translate(-6.0649086e-8,-2.8007888e-5)"><stop
         offset="0.0177"
         style="stop-color:#550210"
         id="stop10-3" /><stop
         offset="0.1405"
         style="stop-color:#B20014"
         id="stop12-1" /><stop
         offset="0.3056"
         style="stop-color:#7B0922"
         id="stop14-5" /><stop
         offset="0.3452"
         style="stop-color:#620010"
         id="stop16-6" /><stop
         offset="0.4529"
         style="stop-color:#890017"
         id="stop18-8" /><stop
         offset="0.4545"
         style="stop-color:#FFFFFF"
         id="stop20-4" /><stop
         offset="0.5416"
         style="stop-color:#D90522"
         id="stop22-7" /><stop
         offset="0.7162"
         style="stop-color:#D90522"
         id="stop24-5" /><stop
         offset="0.8295"
         style="stop-color:#610816"
         id="stop26-1" /><stop
         offset="0.8963"
         style="stop-color:#550110"
         id="stop28-4" /><stop
         offset="0.9427"
         style="stop-color:#550110"
         id="stop30-8" /><stop
         offset="0.9673"
         style="stop-color:#53050E"
         id="stop32-5" /><stop
         offset="1"
         style="stop-color:#441A20"
         id="stop34-0" /></linearGradient><radialGradient
       id="SVGID_2_-1"
       cx="1098.0634"
       cy="453.02841"
       r="434.64871"
       gradientUnits="userSpaceOnUse"
       gradientTransform="translate(-6.0649086e-8,-2.8007888e-5)"><stop
         offset="0"
         style="stop-color:#8A949B"
         id="stop37-1" /><stop
         offset="0.0555"
         style="stop-color:#FFFFFF"
         id="stop39-6" /><stop
         offset="0.0686"
         style="stop-color:#437A7F"
         id="stop41-3" /><stop
         offset="0.103"
         style="stop-color:#FFFFFF"
         id="stop43-60" /><stop
         offset="0.1264"
         style="stop-color:#437A7F"
         id="stop45-8" /><stop
         offset="0.1629"
         style="stop-color:#FFFFFF"
         id="stop47-3" /><stop
         offset="0.1884"
         style="stop-color:#437A7F"
         id="stop49-4" /><stop
         offset="0.2187"
         style="stop-color:#FFFFFF"
         id="stop51-8" /><stop
         offset="0.2462"
         style="stop-color:#437A7F"
         id="stop53-3" /><stop
         offset="0.289"
         style="stop-color:#FFFFFF"
         id="stop55-8" /><stop
         offset="0.3227"
         style="stop-color:#437A7F"
         id="stop57-4" /><stop
         offset="0.3764"
         style="stop-color:#437A7F"
         id="stop59-8" /><stop
         offset="0.4088"
         style="stop-color:#FFFFFF"
         id="stop61-1" /><stop
         offset="0.4673"
         style="stop-color:#437A7F"
         id="stop63-3" /><stop
         offset="0.5369"
         style="stop-color:#FFFFFF"
         id="stop65-7" /><stop
         offset="0.5954"
         style="stop-color:#437A7F"
         id="stop67-3" /><stop
         offset="0.6685"
         style="stop-color:#FFFFFF"
         id="stop69-6" /><stop
         offset="0.7214"
         style="stop-color:#437A7F"
         id="stop71-0" /><stop
         offset="0.7834"
         style="stop-color:#437A7F"
         id="stop73-0" /><stop
         offset="0.8607"
         style="stop-color:#FFFFFF"
         id="stop75-4" /><stop
         offset="1"
         style="stop-color:#64747E"
         id="stop77-5" /></radialGradient><filter
       id="filter5144"
       style="color-interpolation-filters:sRGB;"><feMorphology
         id="feMorphology5146"
         radius="3.6"
         operator="dilate"
         in="SourceAlpha"
         result="result1" /><feGaussianBlur
         id="feGaussianBlur5148"
         result="result0"
         in="result1"
         stdDeviation="3.6" /><feDiffuseLighting
         id="feDiffuseLighting5150"
         surfaceScale="-5"><feDistantLight
           id="feDistantLight5152"
           azimuth="225"
           elevation="45" /></feDiffuseLighting><feComposite
         id="feComposite5154"
         result="result91"
         operator="in"
         in2="result0" /><feComposite
         id="feComposite5156"
         in2="result91"
         in="SourceGraphic" /></filter><filter
       id="filter5228"
       style="color-interpolation-filters:sRGB;"><feFlood
         id="feFlood5230"
         result="flood"
         flood-color="rgb(0,0,0)"
         flood-opacity="0.905882" /><feComposite
         id="feComposite5232"
         result="composite1"
         operator="in"
         in2="SourceGraphic"
         in="flood" /><feGaussianBlur
         id="feGaussianBlur5234"
         result="blur"
         stdDeviation="15.6"
         in="composite1" /><feOffset
         id="feOffset5236"
         result="offset"
         dy="12.8"
         dx="12.5" /><feComposite
         id="feComposite5238"
         result="composite2"
         operator="over"
         in2="offset"
         in="SourceGraphic" /></filter></defs><g
     id="g5264"><g
       id="g5"><path
         style="stroke:#000000;stroke-width:10"
         id="path7"
         d="m 509.8378,788.5605 c 0,19.2002 -11.4746,28.7998 -34.3994,28.7998 -11.7383,0 -29.6006,-1.4746 -53.6006,-4.4004 -24,-2.9375 -41.875,-4.3994 -53.5996,-4.3994 -11.7373,0 -29.6006,1.4619 -53.6006,4.3994 -24,2.9258 -41.8745,4.4004 -53.5996,4.4004 -22.9375,0 -34.3999,-9.5996 -34.3999,-28.7998 0,-17.6006 9.0625,-26.3999 27.1997,-26.3999 4.2627,0 10.6626,0.5376 19.2002,1.6001 8.5249,1.0747 14.3999,1.5996 17.5996,1.5996 21.3252,0 34.6631,-10.9248 40,-32.7998 2.125,-8.5249 3.2002,-28 3.2002,-58.3999 l 0,-271.2002 c 0,-44.2622 -3.3369,-69.8623 -10,-76.7998 -6.6748,-6.9253 -30.5371,-10.3999 -71.5996,-10.3999 -17.0752,0 -25.6001,-9.0625 -25.6001,-27.2002 0,-19.2002 11.4624,-28.7998 34.3999,-28.7998 11.7251,0 29.5996,1.4746 53.5996,4.3999 24,2.9375 41.8633,4.3999 53.6006,4.3999 12.2627,0 30.2627,-1.4624 54,-4.3999 23.7246,-2.9253 41.4619,-4.3999 53.2002,-4.3999 22.9248,0 34.3994,9.5996 34.3994,28.7998 0,17.6001 -9.0752,26.3999 -27.2002,26.3999 -4.2744,0 -10.6748,-0.5249 -19.1992,-1.6001 -8.5381,-1.0625 -14.4004,-1.5996 -17.6006,-1.5996 -21.3369,0 -34.6748,11.1997 -40,33.5996 -2.1377,8.5376 -3.2002,28.5376 -3.2002,60 l 0,285.6001 c 0,37.3374 5.3252,59.2002 16,65.6001 4.8008,3.2002 26.6631,4.7998 65.6006,4.7998 17.0625,10e-5 25.5996,9.0752 25.5996,27.2002 z" /></g><g
       id="g81"><path
         style="stroke:#000000;stroke-width:10"
         id="path83"
         d="m 800.6386,981.4395 c 0,17.6006 -8.9375,26.4004 -26.8003,26.4004 -4.1997,0 -10.5122,-0.5254 -18.9121,-1.5996 -8.4126,-1.0625 -14.2002,-1.5996 -17.3501,-1.5996 -29.4253,0 -44.1377,26.1367 -44.1377,78.3994 0,6.9375 0,16 0,27.2002 0,11.1992 0,18.6748 0,22.4004 l 0,284.7988 c 0,69.3379 -20.375,104 -61.1001,104 -18.2246,0 -33.7749,-7.4746 -46.625,-22.4004 -7.5122,-9.0625 -16.0874,-24.7988 -25.7373,-47.1992 l -191.3374,-435.1992 0,372 c 0,28.2734 2.9248,46.3984 8.7998,54.3984 5.8628,8 17.0625,12 33.6001,12 3.2002,0 9.0625,0 17.6001,0 8.5249,-0.5234 15.7251,-0.7988 21.6001,-0.7988 17.0625,0 25.5996,9.0742 25.5996,27.1992 0,19.2012 -13.875,28.8008 -41.5996,28.8008 -11.2002,0 -28.1377,-1.4746 -50.8003,-4.4004 -22.6748,-2.9375 -39.875,-4.4004 -51.6001,-4.4004 -11.1997,0 -27.5996,1.4629 -49.1997,4.4004 -21.6001,2.9258 -37.7378,4.4004 -48.3999,4.4004 -27.7378,0 -41.6001,-9.5996 -41.6001,-28.8008 0,-17.5996 9.0625,-26.4004 27.1997,-26.4004 4.2627,0 10.6626,0.5391 19.2002,1.6016 8.5249,1.0742 14.3999,1.5996 17.6001,1.5996 20.7998,0 34.125,-10.9258 40,-32.8008 2.125,-8.5254 3.1997,-27.7246 3.1997,-57.5996 l 0,-272.7999 c 0,-43.7256 -3.3374,-69.0625 -10,-76 -6.6748,-6.9248 -30.5371,-10.3994 -71.5996,-10.3994 -17.0752,0 -25.6001,-9.0625 -25.6001,-27.2012 0,-19.1992 13.9126,-28.7988 41.75,-28.7988 8.0249,0 20.0747,1.4746 36.1372,4.3994 16.0503,2.9375 28.1001,4.3994 36.1377,4.3994 8.5625,0 21.1377,-1.4619 37.7373,-4.3994 16.5879,-2.9248 29.1626,-4.3994 37.7378,-4.3994 11.7749,0 21.6748,5.5996 29.7124,16.7988 3.2002,4.2754 8.5625,14.9375 16.0625,32 l 196.7251,447.2012 0,-366.4004 c 0,-38.9258 -4.8003,-61.5996 -14.3999,-68 -5.3379,-3.7246 -27.7378,-5.5996 -67.2002,-5.5996 -17.0752,0 -25.6001,-9.0625 -25.6001,-27.2012 0,-19.1992 13.8628,-28.7988 41.6001,-28.7988 11.7251,0 29.6001,1.4746 53.6001,4.3994 24,2.9375 41.8623,4.3994 53.6001,4.3994 12.2622,0 30.2622,-1.4619 54,-4.3994 23.7246,-2.9248 41.4624,-4.3994 53.1997,-4.3994 18.125,0 27.2002,9.5996 27.2002,28.7989 z" /><path
         style="stroke:#000000;stroke-width:10"
         id="path85"
         d="m 1458.2347,981.8525 c 0,17.8623 -9.0752,26.7881 -27.2002,26.7881 -4.7998,0 -12.2754,-0.9258 -22.4004,-2.8008 -10.1367,-1.8623 -17.0742,-2.7998 -20.7998,-2.7998 -23.4746,0 -62.3994,44 -116.7998,132 -30.9375,54.3994 -62.1377,108.7998 -93.5996,163.2002 l 0,35.1992 c 0,10.1387 0,22.5371 0,37.2012 0,14.6738 0,24.3984 0,29.1992 0,21.875 4.9873,36.4004 14.9873,43.5996 10,7.2012 32.3496,10.8008 67.0752,10.8008 22.625,0 33.9375,9.5996 33.9375,28.7988 0,18.1387 -8.5381,27.2012 -25.6006,27.2012 -13.875,0 -34.6748,-1.4746 -62.3994,-4.4004 -27.7383,-2.9375 -48.5381,-4.4004 -62.4004,-4.4004 -12.2754,0 -30.7998,1.4629 -55.5996,4.4004 -24.8008,2.9258 -43.3379,4.4004 -55.6006,4.4004 -26.1376,0 -39.2001,-9.0625 -39.2001,-27.2012 0,-18.6621 11.3877,-28 34.163,-28 5.2998,0 12.5752,0.5391 21.8496,1.6016 9.2627,1.0742 15.4873,1.5996 18.6748,1.5996 27.5381,0 41.3125,-25.8633 41.3125,-77.5996 0,-5.3262 0,-12.5254 0,-21.6016 0,-8.5234 0,-14.3984 0,-17.5996 l 0,-38.4004 -165.5995,-262.3984 c -14.4004,-23.4629 -29.6006,-35.2012 -45.6006,-35.2012 -3.1992,0 -9.5996,0.5381 -19.1992,1.6006 -9.6006,1.0752 -18.1377,1.6006 -25.6006,1.6006 -17.0752,0 -25.6001,-9.0625 -25.6001,-27.2012 0,-19.1992 11.2002,-28.7988 33.6001,-28.7988 11.7256,0 29.6006,1.4746 53.6006,4.3994 24,2.9375 41.8623,4.3994 53.5996,4.3994 11.7246,0 29.5996,-1.4619 53.5996,-4.3994 24.0009,-2.9248 41.8632,-4.3994 53.6005,-4.3994 22.9248,0 34.4004,9.5996 34.4004,28.7988 0,18.1387 -10.4004,27.2012 -31.2002,27.2012 -5.875,0 -14.2754,-0.8008 -25.2002,-2.4004 -10.9375,-1.5996 -18.2754,-2.4004 -22,-2.4004 -8.538,0 -14.1376,2.6758 -16.7997,8 12.2617,30.9375 32.7997,69.3379 61.5995,115.2002 23.4629,37.3369 46.9248,74.6748 70.4004,111.999 24,-37.3242 48.2627,-74.3984 72.7998,-111.1992 29.8623,-46.9248 49.8623,-85.8623 60,-116.7998 -4.7998,-4.7998 -13.5996,-7.2002 -26.4004,-7.2002 -6.9375,0 -16.6748,0.8008 -29.1992,2.4004 -12.5381,1.5996 -20.6758,2.4004 -24.4004,2.4004 -17.0752,0 -25.5996,-9.0625 -25.5996,-27.2012 0,-9.0625 3.7246,-16.125 11.1992,-21.1992 7.4629,-5.0625 15.7256,-7.5996 24.8008,-7.5996 11.7246,0 29.5996,1.4746 53.5996,4.3994 24,2.9375 41.8623,4.3994 53.5996,4.3994 12.2627,0 30.2627,-1.4619 54,-4.3994 23.7256,-2.9248 41.4629,-4.3994 53.2002,-4.3994 22.9249,0 34.4004,9.7364 34.4004,29.2119 z" /></g><g
       id="g87"><path
         d="M1620.6726,220.282c0,0.5916-0.2009,1.0871-0.6016,1.4877c-0.4011,0.4015-0.897,0.6015-1.4873,0.6015   c-0.8865,0-2.2373-0.7381-4.0516-2.2156c-1.0979-0.9706-2.1946-1.9408-3.2919-2.912l-0.5063,0.3165   c0.2814,1.1393,0.5422,2.2579,0.7833,3.3549c0.3214,1.3928,0.4828,2.5321,0.4828,3.4183c0,2.1108-0.7388,3.1651-2.2156,3.1651   c-1.4775,0-2.2156-0.9069-2.2156-2.7219c0-0.5063,0.4432-2.89,1.3297-7.1531l-0.4432-0.3799   c-1.0553,0.9712-2.1316,1.9624-3.2289,2.975c-1.7308,1.4354-3.0599,2.1525-3.9879,2.1525c-1.4348,0-2.1519-0.6964-2.1519-2.0892   c0-1.1393,1.2419-2.1936,3.7264-3.1651c1.585-0.464,3.17-0.9276,4.7557-1.3925v-0.6964c-1.5974-0.464-3.2164-0.9495-4.8566-1.4561   c-2.4171-0.9276-3.6256-2.0255-3.6256-3.2915s0.6793-1.8991,2.0381-1.8991c1.0188,0,2.3572,0.718,4.0139,2.1522   c1.1041,1.0129,2.1879,2.0258,3.2505,3.0384l0.5094-0.3796c-0.2961-1.181-0.5699-2.3423-0.8235-3.4816   c-0.3381-1.4342-0.5062-2.6162-0.5062-3.545c0-1.9408,0.738-2.912,2.2156-2.912c1.4768,0,2.2156,0.9288,2.2156,2.7852   c0,0.9288-0.1688,2.1315-0.5063,3.6084c-0.2954,1.182-0.5916,2.364-0.8865,3.545l0.5768,0.3796   c1.0682-1.0543,2.1581-2.1096,3.2703-3.1651c1.7092-1.5606,3.0768-2.342,4.1029-2.342c1.4102,0,2.1155,0.6123,2.1155,1.8357   c0,1.2661-1.1653,2.3847-3.4946,3.3549c-1.7267,0.5916-3.4526,1.182-5.178,1.7727v0.6964   c1.7007,0.5063,3.4006,0.9919,5.1019,1.4558C1619.4819,218.0664,1620.6726,219.101,1620.6726,220.282z"
         id="path89" /></g><g
       id="g91"><g
         id="g93"><path
           d="M582.9594,1567.0198c0,0.5916-0.2009,1.087-0.6015,1.4877c-0.4012,0.4015-0.897,0.6014-1.4874,0.6014    c-0.8865,0-2.2372-0.7382-4.0516-2.2156c-1.0979-0.9706-2.1945-1.9408-3.2918-2.912l-0.5063,0.3165    c0.2813,1.1393,0.5422,2.2579,0.7833,3.3549c0.3215,1.3928,0.4828,2.5321,0.4828,3.4183c0,2.1108-0.7387,3.1652-2.2156,3.1652    c-1.4775,0-2.2156-0.907-2.2156-2.7219c0-0.5063,0.4432-2.89,1.3297-7.1531l-0.4432-0.3799    c-1.0552,0.9712-2.1315,1.9624-3.2288,2.9751c-1.7309,1.4354-3.06,2.1525-3.9879,2.1525c-1.4348,0-2.1519-0.6964-2.1519-2.0891    c0-1.1394,1.2419-2.1937,3.7264-3.1652c1.585-0.464,3.17-0.9276,4.7557-1.3925v-0.6964c-1.5974-0.464-3.2164-0.9496-4.8565-1.4562    c-2.4171-0.9276-3.6257-2.0255-3.6257-3.2915c0-1.2661,0.6794-1.8992,2.0381-1.8992c1.0188,0,2.3572,0.7181,4.0139,2.1522    c1.1041,1.0129,2.1878,2.0259,3.2504,3.0385l0.5094-0.3795c-0.2961-1.1812-0.5699-2.3424-0.8234-3.4817    c-0.3381-1.4342-0.5063-2.6162-0.5063-3.545c0-1.9408,0.7381-2.912,2.2156-2.912c1.4769,0,2.2156,0.9288,2.2156,2.7853    c0,0.9288-0.1688,2.1316-0.5063,3.6084c-0.2955,1.182-0.5916,2.3639-0.8865,3.545l0.5768,0.3795    c1.0682-1.0543,2.1581-2.1096,3.2702-3.1652c1.7093-1.5605,3.0767-2.3419,4.103-2.3419c1.4101,0,2.1154,0.6123,2.1154,1.8357    c0,1.266-1.1653,2.3846-3.4946,3.3549c-1.7266,0.5917-3.4526,1.182-5.178,1.7727v0.6964    c1.7007,0.5062,3.4007,0.9918,5.1019,1.4558C581.7687,1564.8041,582.9594,1565.8386,582.9594,1567.0198z"
           id="path95" /></g><g
         id="g97"><path
           d="M610.519,1567.3345c0,0.5518-0.3301,0.8281-0.9893,0.8281c-0.3369,0-0.8506-0.042-1.541-0.126    c-0.6895-0.085-1.2041-0.127-1.541-0.127s-0.8506,0.042-1.541,0.127c-0.6895,0.084-1.2041,0.126-1.541,0.126    c-0.6592,0-0.9893-0.2764-0.9893-0.8281c0-0.5059,0.2607-0.7588,0.7822-0.7588c0.123,0,0.3066,0.0156,0.5518,0.0459    c0.2451,0.0313,0.4141,0.0459,0.5068,0.0459c0.6123,0,0.9961-0.3135,1.1494-0.9424c0.0615-0.2451,0.0918-0.8057,0.0918-1.6797    v-7.7969c0-1.2725-0.0957-2.0088-0.2871-2.208c-0.1924-0.1992-0.8779-0.2988-2.0586-0.2988c-0.4912,0-0.7363-0.2607-0.7363-0.7822    c0-0.5518,0.3301-0.8281,0.9893-0.8281c0.3369,0,0.8516,0.043,1.541,0.127c0.6904,0.084,1.2041,0.126,1.541,0.126    c0.3525,0,0.8701-0.042,1.5527-0.126c0.6816-0.084,1.1924-0.127,1.5293-0.127c0.6592,0,0.9893,0.2764,0.9893,0.8281    c0,0.5059-0.2607,0.7588-0.7822,0.7588c-0.123,0-0.3066-0.0146-0.5518-0.0459c-0.2461-0.0303-0.4141-0.0459-0.5059-0.0459    c-0.6143,0-0.9971,0.3223-1.1504,0.9658c-0.0615,0.2461-0.0918,0.8213-0.0918,1.7256v8.2109c0,1.0732,0.1533,1.7021,0.46,1.8857    c0.1377,0.0918,0.7666,0.1377,1.8857,0.1377C610.2729,1566.5522,610.519,1566.814,610.519,1567.3345z"
           id="path99" /><path
           d="M638.9468,1556.9614c0,0.3535-0.2686,0.6367-0.8057,0.8516l-0.8047-0.1611c-0.4756,0-0.9355,0.9277-1.3799,2.7832    c-0.3994,1.7168-0.7979,3.4424-1.1963,5.1748c-0.583,1.8555-1.2725,2.7832-2.0703,2.7832c-0.5518,0-0.9658-0.2529-1.2412-0.7598    c-0.1689-0.3066-0.3301-0.8125-0.4834-1.5176l-1.7021-8.1416h-0.0459l-1.7705,8.0039c-0.1689,0.7969-0.3301,1.334-0.4834,1.6094    c-0.291,0.5371-0.7363,0.8057-1.334,0.8057c-0.7207,0-1.2344-0.5752-1.541-1.7256l-2.0469-7.7051    c-0.1533-0.5518-0.2607-0.8965-0.3223-1.0352c-0.0615-0.1377-0.1611-0.207-0.2988-0.207c-0.0313,0-0.1611,0.0156-0.3906,0.0469    c-0.2305,0.0303-0.4531,0.0459-0.667,0.0459c-0.2305,0-0.4375-0.084-0.6211-0.2529c-0.1846-0.1689-0.2764-0.3682-0.2764-0.5986    c0-0.5059,0.4521-0.7588,1.3574-0.7588c0.2754,0,0.6816,0.042,1.2188,0.127c0.5361,0.084,0.9424,0.126,1.2188,0.126    c0.2607,0,0.6553-0.042,1.1846-0.126c0.5293-0.085,0.9238-0.127,1.1846-0.127c0.5215,0,0.7822,0.2529,0.7822,0.7588    c0,0.5371-0.2764,0.8057-0.8281,0.8057c-0.1533,0-0.3604-0.0195-0.6211-0.0576s-0.4375-0.0576-0.5293-0.0576    c-0.4141,0-0.6211,0.2373-0.6211,0.7129c0,1.0732,0.2383,2.4766,0.7129,4.209c0.3994,1.3652,0.79,2.7373,1.1738,4.1172h0.0459    l1.748-8.0146c0.168-0.8096,0.3213-1.3438,0.46-1.6035c0.291-0.5801,0.7129-0.8701,1.2646-0.8701    c0.5977,0,1.0352,0.2754,1.3115,0.8242c0.1221,0.2598,0.2754,0.8096,0.46,1.6494l1.7012,8.0146h0.0469    c0.3984-1.3955,0.7969-2.791,1.1953-4.1865c0.4756-1.748,0.7129-3.1582,0.7129-4.2314c0-0.4141-0.1992-0.6211-0.5977-0.6211    c-0.123,0-0.3145,0.0264-0.5752,0.0801s-0.4365,0.0811-0.5293,0.0811c-0.2295,0-0.4287-0.084-0.5977-0.2529    s-0.2529-0.3682-0.2529-0.5986c0-0.5059,0.4219-0.7588,1.2646-0.7588c0.2764,0,0.6826,0.042,1.2197,0.127    c0.5361,0.084,0.9424,0.126,1.2188,0.126c0.2607,0,0.6553-0.042,1.1846-0.126c0.5293-0.085,0.9238-0.127,1.1846-0.127    C638.6851,1556.2026,638.9468,1556.4556,638.9468,1556.9614z"
           id="path101" /><path
           d="M652.1938,1564.3911c0,1.3945-0.084,2.3154-0.2529,2.7598c-0.3369,0.8281-1.0889,1.2422-2.2539,1.2422    c-1.3496,0-2.1309-0.5527-2.3457-1.6563c-0.7363,1.165-1.9785,1.748-3.7266,1.748c-1.165,0-2.1387-0.2686-2.9209-0.8057    c-0.9043-0.6123-1.3564-1.4795-1.3564-2.5986c0-1.5791,0.6748-2.6367,2.0234-3.1738c0.1074-0.0459,1.3721-0.2832,3.7949-0.7129    c1.3496-0.2305,2.0244-0.79,2.0244-1.6787c0-1.3809-0.8662-2.0703-2.5986-2.0703c-0.3838,0-0.8281,0.0996-1.334,0.2988    c-0.6289,0.2305-0.9512,0.498-0.9668,0.8047c0.3682,0.0928,0.5527,0.4072,0.5527,0.9434c0,0.3223-0.123,0.583-0.3682,0.7822    c-0.2461,0.1992-0.5371,0.2988-0.874,0.2988c-0.3994,0-0.7363-0.1455-1.0117-0.4375c-0.2764-0.291-0.4141-0.6357-0.4141-1.0342    c0-1.0127,0.5137-1.8252,1.541-2.4385c0.874-0.5215,1.8477-0.7822,2.9209-0.7822c1.748,0,2.9746,0.4893,3.6797,1.4658    c0.5361,0.7637,0.8047,1.9316,0.8047,3.5049c0,0.4736-0.0303,1.21-0.0918,2.21s-0.0918,1.7373-0.0918,2.2109    c0,1.0996,0.2949,1.6484,0.8848,1.6484c0.5605,0,0.8398-0.5293,0.8398-1.5889c0-0.1211,0-0.2793,0-0.4766    c0-0.1963,0-0.3252,0-0.3857c0-0.6807,0.2451-1.0215,0.7363-1.0215C651.9253,1563.4478,652.1938,1563.7622,652.1938,1564.3911z     M647.1567,1561.9985c-0.4287,0.4141-1.1885,0.7061-2.2764,0.874c-1.3955,0.1992-2.2158,0.3447-2.4609,0.4375    c-0.7822,0.3066-1.1729,0.8662-1.1729,1.6787c0,0.6436,0.2451,1.1348,0.7354,1.4717c0.4297,0.3066,0.9814,0.46,1.6563,0.46    c1.5645,0,2.5762-0.4902,3.0361-1.4717C646.9038,1564.9585,647.0649,1563.8081,647.1567,1561.9985z"
           id="path103" /><path
           d="M667.6499,1567.3345c0,0.5518-0.3301,0.8281-0.9893,0.8281c-0.2607,0-0.6514-0.042-1.1729-0.126    c-0.5215-0.085-0.9121-0.127-1.1729-0.127c-0.2764,0-0.6865,0.042-1.2305,0.127c-0.5449,0.084-0.9541,0.126-1.2305,0.126    c-0.6592,0-0.9893-0.2764-0.9893-0.8281c0-0.4902,0.2529-0.7354,0.7588-0.7354c0.123,0,0.3105,0.0186,0.5635,0.0566    c0.2539,0.0391,0.4258,0.0576,0.5176,0.0576c0.3379,0,0.5527-0.2607,0.6445-0.7813c0.0146-0.1387,0.0225-0.5293,0.0225-1.1738    v-3.7949c0-1.1494-0.1836-1.9932-0.5518-2.5293c-0.4443-0.6592-1.2188-0.9893-2.3232-0.9893c-1.3486,0-2.292,0.46-2.8281,1.3799    c-0.3838,0.6904-0.5752,1.7559-0.5752,3.1973v2.7139c0,0.8438,0.0303,1.3604,0.0918,1.5527    c0.0605,0.1914,0.2529,0.2871,0.5752,0.2871c0.0605,0,0.2139,0,0.46,0c0.2295-0.0146,0.4287-0.0234,0.5977-0.0234    c0.5215,0,0.7822,0.2539,0.7822,0.7598c0,0.5674-0.3301,0.8506-0.9893,0.8506c-0.2607,0-0.6514-0.042-1.1729-0.126    c-0.5215-0.085-0.9121-0.127-1.1729-0.127c-0.2764,0-0.6865,0.042-1.2305,0.127c-0.5449,0.084-0.9551,0.126-1.2305,0.126    c-0.6602,0-0.9893-0.2832-0.9893-0.8506c0-0.4912,0.2529-0.7363,0.7588-0.7363c0.123,0,0.3105,0.0234,0.5635,0.0693    s0.4258,0.0684,0.5176,0.0684c0.3369,0,0.5518-0.2607,0.6445-0.7842c0.0146-0.1377,0.0225-0.5293,0.0225-1.1758v-5.1191    c0-0.8447-0.0264-1.3682-0.0801-1.5684c-0.0537-0.1992-0.2266-0.2988-0.5176-0.2988c-0.0615,0-0.2148,0.0078-0.46,0.0225    c-0.2461,0.0156-0.4678,0.0234-0.667,0.0234c-0.5215,0-0.7822-0.2529-0.7822-0.7598c0-0.2139,0.0879-0.4092,0.2646-0.5859    c0.1758-0.1758,0.3711-0.2646,0.5859-0.2646c0.1387,0,0.3418,0.042,0.6104,0.127c0.2676,0.084,0.4785,0.126,0.6318,0.126    c0.1689,0,0.4102-0.042,0.7246-0.126c0.3145-0.085,0.5557-0.127,0.7246-0.127c0.2607,0,0.4219,0.1836,0.4834,0.5518    c0.0146,0.0918,0.0225,0.3682,0.0225,0.8281h0.0459c0.8281-1.1348,2.1084-1.7021,3.8408-1.7021    c1.7793,0,3.0137,0.5674,3.7031,1.7021c0.5215,0.8281,0.7822,2.1162,0.7822,3.8643c0,0.3682-0.0156,0.9277-0.0459,1.6787    c-0.0313,0.752-0.0459,1.2959-0.0459,1.6328c0,1.3037,0.2217,1.9551,0.667,1.9551c0.1221,0,0.2988-0.0225,0.5293-0.0684    c0.2295-0.0459,0.4053-0.0693,0.5283-0.0693C667.3892,1566.5757,667.6499,1566.8286,667.6499,1567.3345z"
           id="path105" /><path
           d="M676.5503,1563.2593c0,1.5732-0.2148,2.7344-0.6436,3.4834c-0.5674,0.9775-1.5791,1.4658-3.0361,1.4658    c-1.334,0-2.2305-0.4512-2.6914-1.3535c-0.3213-0.6279-0.4824-1.668-0.4824-3.1211v-5.0723c0-0.5654-0.3145-0.8486-0.9434-0.8486    c-0.0303,0-0.0762,0-0.1377,0s-0.1074,0-0.1377,0c-0.6143,0-0.9199-0.2686-0.9199-0.8057c0-0.5205,0.2832-0.7813,0.8506-0.7813    c0.0459,0,0.1152,0,0.207,0c0.1074,0,0.1836,0,0.2295,0c0.5674,0,0.8516-0.2666,0.8516-0.8008    c0-0.0908-0.0117-0.3008-0.0342-0.6289c-0.0234-0.3271-0.0352-0.5898-0.0352-0.7881c0-1.082,0.3223-1.624,0.9658-1.624    c0.6445,0,0.9668,0.5947,0.9668,1.7832c0,0.2441-0.0156,0.5566-0.0469,0.9385c-0.0303,0.3809-0.0459,0.6094-0.0459,0.6855    c0,0.2891,0.2686,0.4346,0.8057,0.4346c0.1523,0,0.4287-0.0117,0.8281-0.0352c0.3984-0.0225,0.6973-0.0342,0.8965-0.0342    c0.8896,0,1.334,0.2949,1.334,0.8848c0,0.5605-0.4443,0.8398-1.334,0.8398c-0.1689,0-0.4336-0.0146-0.793-0.0459    c-0.3613-0.0303-0.625-0.0459-0.7939-0.0459c-0.6289,0-0.9434,0.1758-0.9434,0.5273v5.5518c0,0.8564,0.0771,1.4678,0.2305,1.835    c0.2451,0.5967,0.7275,0.8955,1.4492,0.8955c0.8281,0,1.3262-0.3818,1.4951-1.1445c0.0459-0.7168,0.0996-1.4453,0.1602-2.1855    c0.0615-0.7393,0.3604-1.1094,0.8975-1.1094C676.2671,1562.1597,676.5503,1562.5259,676.5503,1563.2593z"
           id="path107" /><path
           d="M694.4897,1563.2593c0,1.5732-0.2148,2.7344-0.6436,3.4834c-0.5674,0.9775-1.5791,1.4658-3.0361,1.4658    c-1.334,0-2.2305-0.4512-2.6914-1.3535c-0.3213-0.6279-0.4824-1.668-0.4824-3.1211v-5.0723c0-0.5654-0.3145-0.8486-0.9434-0.8486    c-0.0303,0-0.0762,0-0.1377,0s-0.1074,0-0.1377,0c-0.6143,0-0.9199-0.2686-0.9199-0.8057c0-0.5205,0.2832-0.7813,0.8506-0.7813    c0.0459,0,0.1152,0,0.207,0c0.1074,0,0.1836,0,0.2295,0c0.5674,0,0.8516-0.2666,0.8516-0.8008    c0-0.0908-0.0117-0.3008-0.0342-0.6289c-0.0234-0.3271-0.0352-0.5898-0.0352-0.7881c0-1.082,0.3223-1.624,0.9658-1.624    c0.6445,0,0.9668,0.5947,0.9668,1.7832c0,0.2441-0.0156,0.5566-0.0469,0.9385c-0.0303,0.3809-0.0459,0.6094-0.0459,0.6855    c0,0.2891,0.2686,0.4346,0.8057,0.4346c0.1523,0,0.4287-0.0117,0.8281-0.0352c0.3984-0.0225,0.6973-0.0342,0.8965-0.0342    c0.8896,0,1.334,0.2949,1.334,0.8848c0,0.5605-0.4443,0.8398-1.334,0.8398c-0.1689,0-0.4336-0.0146-0.793-0.0459    c-0.3613-0.0303-0.625-0.0459-0.7939-0.0459c-0.6289,0-0.9434,0.1758-0.9434,0.5273v5.5518c0,0.8564,0.0771,1.4678,0.2305,1.835    c0.2451,0.5967,0.7275,0.8955,1.4492,0.8955c0.8281,0,1.3262-0.3818,1.4951-1.1445c0.0459-0.7168,0.0996-1.4453,0.1602-2.1855    c0.0615-0.7393,0.3604-1.1094,0.8975-1.1094C694.2065,1562.1597,694.4897,1562.5259,694.4897,1563.2593z"
           id="path109" /><path
           d="M706.6802,1562.1362c0,1.8252-0.4824,3.3203-1.4492,4.4854c-1.0273,1.2422-2.4375,1.8633-4.2314,1.8633    c-1.7334,0-3.0977-0.6289-4.0938-1.8857c-0.9053-1.1504-1.3574-2.6143-1.3574-4.3936c0-1.7939,0.4521-3.2734,1.3574-4.4385    c0.9961-1.2578,2.3682-1.8867,4.1162-1.8867c1.8252,0,3.2354,0.5986,4.2324,1.7939    C706.2046,1558.7788,706.6802,1560.2661,706.6802,1562.1362z M704.771,1562.0444c0-1.334-0.2607-2.3994-0.7813-3.1963    c-0.6143-0.9355-1.5566-1.4033-2.8291-1.4033c-1.2578,0-2.208,0.4824-2.8525,1.4492c-0.5674,0.8428-0.8506,1.9238-0.8506,3.2422    c0,1.3193,0.2607,2.4004,0.7822,3.2432c0.6279,1.0273,1.5557,1.541,2.7822,1.541c1.3037,0,2.2773-0.5059,2.9209-1.5176    C704.4956,1564.5444,704.771,1563.4243,704.771,1562.0444z"
           id="path111" /><path
           d="M727.1968,1564.7124c0,1.2119-0.5059,2.1621-1.5186,2.8525c-0.8896,0.6133-1.9707,0.9199-3.2432,0.9199    c-1.3643,0-2.4834-0.3604-3.3574-1.0811v0.2754c0.0146,0.2607-0.0488,0.4951-0.1924,0.7021    c-0.1445,0.207-0.3447,0.3105-0.6016,0.3105c-0.5752,0-0.8623-0.3223-0.8623-0.9658c0-0.2148,0.0303-0.5371,0.0918-0.9668    c0.0615-0.4287,0.0918-0.751,0.0918-0.9658c0-0.1992-0.0303-0.5059-0.0918-0.9199s-0.0918-0.7207-0.0918-0.9199    c0-0.5518,0.2686-0.8281,0.8047-0.8281c0.4453,0,0.6904,0.3535,0.7363,1.0586c0.0615,0.8887,0.2607,1.4795,0.5977,1.7705    c0.752,0.6445,1.7715,0.9658,3.0596,0.9658c0.7051,0,1.3027-0.1533,1.7939-0.46c0.582-0.3828,0.874-0.9043,0.874-1.5635    c0-0.9199-0.6523-1.5186-1.9551-1.7939c-1.1963-0.2305-2.3916-0.4678-3.5879-0.7129c-1.3037-0.4756-1.9551-1.4033-1.9551-2.7832    c0-1.165,0.4678-2.0938,1.4033-2.7832c0.8584-0.6289,1.8857-0.9434,3.082-0.9434c1.1797,0,2.085,0.2686,2.7139,0.8057    l-0.0234-0.1846c-0.0313-0.5205,0.2227-0.7822,0.7588-0.7822c0.5215,0,0.7822,0.2539,0.7822,0.7598v3.4033    c0,0.5674-0.2764,0.8516-0.8281,0.8516c-0.3066,0-0.5283-0.2842-0.667-0.8516c-0.1689-0.7813-0.3525-1.3105-0.5518-1.5869    c-0.4297-0.5664-1.1582-0.8506-2.1846-0.8506c-0.6758,0-1.2578,0.1689-1.748,0.5059c-0.5527,0.3682-0.8281,0.874-0.8281,1.5176    c0,0.8438,0.6514,1.3955,1.9551,1.6563c1.1953,0.2461,2.3916,0.4834,3.5879,0.7129    C726.5444,1562.3433,727.1968,1563.3022,727.1968,1564.7124z"
           id="path113" /><path
           d="M743.479,1567.312c0,0.5674-0.3291,0.8506-0.9883,0.8506c-0.2607,0-0.6563-0.042-1.1846-0.126    c-0.5293-0.085-0.9238-0.127-1.1846-0.127c-0.2764,0-0.6826,0.042-1.2188,0.127c-0.5371,0.084-0.9434,0.126-1.2197,0.126    c-0.2607,0-0.4902-0.0801-0.6895-0.2412s-0.2988-0.3643-0.2988-0.6094c0-0.4912,0.2529-0.7363,0.7588-0.7363    c0.1221,0,0.3105,0.0195,0.5635,0.0576s0.4258,0.0576,0.5176,0.0576c0.3369,0,0.5439-0.2607,0.6211-0.7822    c0.0303-0.1377,0.0459-0.5215,0.0459-1.1504v-3.4961c0-1.1797-0.1689-2.0693-0.5059-2.668    c-0.4453-0.7666-1.2197-1.1494-2.3232-1.1494c-1.2578,0-2.1543,0.3682-2.6914,1.1035c-0.46,0.6445-0.6895,1.6025-0.6895,2.875    v3.335c0,0.8281,0.0303,1.3418,0.0918,1.541c0.0605,0.2002,0.2295,0.2998,0.5059,0.2998c0.0615,0,0.2188-0.0078,0.4717-0.0234    c0.2529-0.0146,0.4717-0.0234,0.6553-0.0234c0.5215,0,0.7822,0.2539,0.7822,0.7598c0,0.5674-0.3301,0.8506-0.9893,0.8506    c-0.2607,0-0.6553-0.042-1.1846-0.126c-0.5283-0.085-0.9238-0.127-1.1846-0.127c-0.2754,0-0.6826,0.042-1.2188,0.127    c-0.5371,0.084-0.9434,0.126-1.2188,0.126c-0.2607,0-0.4912-0.0801-0.6904-0.2412s-0.2988-0.3643-0.2988-0.6094    c0-0.4912,0.2529-0.7363,0.7588-0.7363c0.123,0,0.3105,0.0195,0.5635,0.0576s0.4258,0.0576,0.5176,0.0576    c0.3369,0,0.5439-0.2607,0.6211-0.7822c0.0303-0.1377,0.0459-0.5215,0.0459-1.1504v-9.3838c0-0.8125-0.0303-1.3262-0.0918-1.541    s-0.2227-0.3223-0.4834-0.3223c-0.0615,0-0.2178,0.0117-0.4707,0.0352c-0.2529,0.0225-0.4795,0.0342-0.6787,0.0342    c-0.5215,0-0.7822-0.2529-0.7822-0.7588c0-0.2305,0.0879-0.4297,0.2646-0.5977c0.1758-0.1689,0.3789-0.2539,0.6094-0.2539    c0.1689,0,0.4219,0.043,0.7588,0.127s0.5898,0.127,0.7588,0.127c0.1533,0,0.3643-0.043,0.6328-0.127s0.4717-0.127,0.6094-0.127    c0.5215,0,0.7822,0.8438,0.7822,2.5303c0,0.5059-0.0234,1.1084-0.0693,1.8057c-0.0459,0.6982-0.0684,1.0547-0.0684,1.0693    c0.9961-0.9961,2.1689-1.4951,3.5186-1.4951c1.8096,0,3.0664,0.5908,3.7725,1.7715c0.5059,0.8438,0.7588,2.1699,0.7588,3.9785    c0,0.3535-0.0117,0.8818-0.0342,1.5869c-0.0234,0.7061-0.0352,1.2197-0.0352,1.541c0,0.6143,0.0156,0.9971,0.0459,1.1504    c0.0771,0.5215,0.2842,0.7822,0.6211,0.7822c0.123,0,0.2988-0.0234,0.5293-0.0693c0.2295-0.0459,0.4063-0.0693,0.5293-0.0693    C743.2183,1566.5522,743.479,1566.8062,743.479,1567.312z"
           id="path115" /><path
           d="M755.439,1562.1362c0,1.8252-0.4824,3.3203-1.4492,4.4854c-1.0273,1.2422-2.4375,1.8633-4.2314,1.8633    c-1.7334,0-3.0977-0.6289-4.0938-1.8857c-0.9053-1.1504-1.3574-2.6143-1.3574-4.3936c0-1.7939,0.4521-3.2734,1.3574-4.4385    c0.9961-1.2578,2.3682-1.8867,4.1162-1.8867c1.8252,0,3.2354,0.5986,4.2324,1.7939    C754.9634,1558.7788,755.439,1560.2661,755.439,1562.1362z M753.5298,1562.0444c0-1.334-0.2607-2.3994-0.7813-3.1963    c-0.6143-0.9355-1.5566-1.4033-2.8291-1.4033c-1.2578,0-2.208,0.4824-2.8525,1.4492c-0.5674,0.8428-0.8506,1.9238-0.8506,3.2422    c0,1.3193,0.2607,2.4004,0.7822,3.2432c0.6279,1.0273,1.5557,1.541,2.7822,1.541c1.3037,0,2.2773-0.5059,2.9209-1.5176    C753.2544,1564.5444,753.5298,1563.4243,753.5298,1562.0444z"
           id="path117" /><path
           d="M768.3198,1562.1362c0,1.8252-0.4824,3.3203-1.4492,4.4854c-1.0273,1.2422-2.4375,1.8633-4.2314,1.8633    c-1.7334,0-3.0977-0.6289-4.0938-1.8857c-0.9053-1.1504-1.3574-2.6143-1.3574-4.3936c0-1.7939,0.4521-3.2734,1.3574-4.4385    c0.9961-1.2578,2.3682-1.8867,4.1162-1.8867c1.8252,0,3.2354,0.5986,4.2324,1.7939    C767.8442,1558.7788,768.3198,1560.2661,768.3198,1562.1362z M766.4106,1562.0444c0-1.334-0.2607-2.3994-0.7813-3.1963    c-0.6143-0.9355-1.5566-1.4033-2.8291-1.4033c-1.2578,0-2.208,0.4824-2.8525,1.4492c-0.5674,0.8428-0.8506,1.9238-0.8506,3.2422    c0,1.3193,0.2607,2.4004,0.7822,3.2432c0.6279,1.0273,1.5557,1.541,2.7822,1.541c1.3037,0,2.2773-0.5059,2.9209-1.5176    C766.1353,1564.5444,766.4106,1563.4243,766.4106,1562.0444z"
           id="path119" /><path
           d="M778.2095,1563.2593c0,1.5732-0.2148,2.7344-0.6436,3.4834c-0.5674,0.9775-1.5791,1.4658-3.0361,1.4658    c-1.334,0-2.2305-0.4512-2.6914-1.3535c-0.3213-0.6279-0.4824-1.668-0.4824-3.1211v-5.0723c0-0.5654-0.3145-0.8486-0.9434-0.8486    c-0.0303,0-0.0762,0-0.1377,0s-0.1074,0-0.1377,0c-0.6143,0-0.9199-0.2686-0.9199-0.8057c0-0.5205,0.2832-0.7813,0.8506-0.7813    c0.0459,0,0.1152,0,0.207,0c0.1074,0,0.1836,0,0.2295,0c0.5674,0,0.8516-0.2666,0.8516-0.8008    c0-0.0908-0.0117-0.3008-0.0342-0.6289c-0.0234-0.3271-0.0352-0.5898-0.0352-0.7881c0-1.082,0.3223-1.624,0.9658-1.624    c0.6445,0,0.9668,0.5947,0.9668,1.7832c0,0.2441-0.0156,0.5566-0.0469,0.9385c-0.0303,0.3809-0.0459,0.6094-0.0459,0.6855    c0,0.2891,0.2686,0.4346,0.8057,0.4346c0.1523,0,0.4287-0.0117,0.8281-0.0352c0.3984-0.0225,0.6973-0.0342,0.8965-0.0342    c0.8896,0,1.334,0.2949,1.334,0.8848c0,0.5605-0.4443,0.8398-1.334,0.8398c-0.1689,0-0.4336-0.0146-0.793-0.0459    c-0.3613-0.0303-0.625-0.0459-0.7939-0.0459c-0.6289,0-0.9434,0.1758-0.9434,0.5273v5.5518c0,0.8564,0.0771,1.4678,0.2305,1.835    c0.2451,0.5967,0.7275,0.8955,1.4492,0.8955c0.8281,0,1.3262-0.3818,1.4951-1.1445c0.0459-0.7168,0.0996-1.4453,0.1602-2.1855    c0.0615-0.7393,0.3604-1.1094,0.8975-1.1094C777.9263,1562.1597,778.2095,1562.5259,778.2095,1563.2593z"
           id="path121" /><path
           d="M800.772,1564.3911c0,1.3945-0.084,2.3154-0.2529,2.7598c-0.3369,0.8281-1.0889,1.2422-2.2539,1.2422    c-1.3496,0-2.1309-0.5527-2.3457-1.6563c-0.7363,1.165-1.9785,1.748-3.7266,1.748c-1.165,0-2.1387-0.2686-2.9209-0.8057    c-0.9043-0.6123-1.3564-1.4795-1.3564-2.5986c0-1.5791,0.6748-2.6367,2.0234-3.1738c0.1074-0.0459,1.3721-0.2832,3.7949-0.7129    c1.3496-0.2305,2.0244-0.79,2.0244-1.6787c0-1.3809-0.8662-2.0703-2.5986-2.0703c-0.3838,0-0.8281,0.0996-1.334,0.2988    c-0.6289,0.2305-0.9512,0.498-0.9668,0.8047c0.3682,0.0928,0.5527,0.4072,0.5527,0.9434c0,0.3223-0.123,0.583-0.3682,0.7822    c-0.2461,0.1992-0.5371,0.2988-0.874,0.2988c-0.3994,0-0.7363-0.1455-1.0117-0.4375c-0.2764-0.291-0.4141-0.6357-0.4141-1.0342    c0-1.0127,0.5137-1.8252,1.541-2.4385c0.874-0.5215,1.8477-0.7822,2.9209-0.7822c1.748,0,2.9746,0.4893,3.6797,1.4658    c0.5361,0.7637,0.8047,1.9316,0.8047,3.5049c0,0.4736-0.0303,1.21-0.0918,2.21s-0.0918,1.7373-0.0918,2.2109    c0,1.0996,0.2949,1.6484,0.8848,1.6484c0.5605,0,0.8398-0.5293,0.8398-1.5889c0-0.1211,0-0.2793,0-0.4766    c0-0.1963,0-0.3252,0-0.3857c0-0.6807,0.2451-1.0215,0.7363-1.0215C800.5034,1563.4478,800.772,1563.7622,800.772,1564.3911z     M795.7349,1561.9985c-0.4287,0.4141-1.1885,0.7061-2.2764,0.874c-1.3955,0.1992-2.2158,0.3447-2.4609,0.4375    c-0.7822,0.3066-1.1729,0.8662-1.1729,1.6787c0,0.6436,0.2451,1.1348,0.7354,1.4717c0.4297,0.3066,0.9814,0.46,1.6563,0.46    c1.5645,0,2.5762-0.4902,3.0361-1.4717C795.4819,1564.9585,795.6431,1563.8081,795.7349,1561.9985z"
           id="path123" /><path
           d="M816.228,1567.3345c0,0.5518-0.3301,0.8281-0.9893,0.8281c-0.2607,0-0.6514-0.042-1.1729-0.126    c-0.5215-0.085-0.9121-0.127-1.1729-0.127c-0.2764,0-0.6865,0.042-1.2305,0.127c-0.5449,0.084-0.9541,0.126-1.2305,0.126    c-0.6592,0-0.9893-0.2764-0.9893-0.8281c0-0.4902,0.2529-0.7354,0.7588-0.7354c0.123,0,0.3105,0.0186,0.5635,0.0566    c0.2539,0.0391,0.4258,0.0576,0.5176,0.0576c0.3379,0,0.5527-0.2607,0.6445-0.7813c0.0146-0.1387,0.0225-0.5293,0.0225-1.1738    v-3.7949c0-1.1494-0.1836-1.9932-0.5518-2.5293c-0.4443-0.6592-1.2188-0.9893-2.3232-0.9893c-1.3486,0-2.292,0.46-2.8281,1.3799    c-0.3838,0.6904-0.5752,1.7559-0.5752,3.1973v2.7139c0,0.8438,0.0303,1.3604,0.0918,1.5527    c0.0605,0.1914,0.2529,0.2871,0.5752,0.2871c0.0605,0,0.2139,0,0.46,0c0.2295-0.0146,0.4287-0.0234,0.5977-0.0234    c0.5215,0,0.7822,0.2539,0.7822,0.7598c0,0.5674-0.3301,0.8506-0.9893,0.8506c-0.2607,0-0.6514-0.042-1.1729-0.126    c-0.5215-0.085-0.9121-0.127-1.1729-0.127c-0.2764,0-0.6865,0.042-1.2305,0.127c-0.5449,0.084-0.9551,0.126-1.2305,0.126    c-0.6602,0-0.9893-0.2832-0.9893-0.8506c0-0.4912,0.2529-0.7363,0.7588-0.7363c0.123,0,0.3105,0.0234,0.5635,0.0693    s0.4258,0.0684,0.5176,0.0684c0.3369,0,0.5518-0.2607,0.6445-0.7842c0.0146-0.1377,0.0225-0.5293,0.0225-1.1758v-5.1191    c0-0.8447-0.0264-1.3682-0.0801-1.5684c-0.0537-0.1992-0.2266-0.2988-0.5176-0.2988c-0.0615,0-0.2148,0.0078-0.46,0.0225    c-0.2461,0.0156-0.4678,0.0234-0.667,0.0234c-0.5215,0-0.7822-0.2529-0.7822-0.7598c0-0.2139,0.0879-0.4092,0.2646-0.5859    c0.1758-0.1758,0.3711-0.2646,0.5859-0.2646c0.1387,0,0.3418,0.042,0.6104,0.127c0.2676,0.084,0.4785,0.126,0.6318,0.126    c0.1689,0,0.4102-0.042,0.7246-0.126c0.3145-0.085,0.5557-0.127,0.7246-0.127c0.2607,0,0.4219,0.1836,0.4834,0.5518    c0.0146,0.0918,0.0225,0.3682,0.0225,0.8281h0.0459c0.8281-1.1348,2.1084-1.7021,3.8408-1.7021    c1.7793,0,3.0137,0.5674,3.7031,1.7021c0.5215,0.8281,0.7822,2.1162,0.7822,3.8643c0,0.3682-0.0156,0.9277-0.0459,1.6787    c-0.0313,0.752-0.0459,1.2959-0.0459,1.6328c0,1.3037,0.2217,1.9551,0.667,1.9551c0.1221,0,0.2988-0.0225,0.5293-0.0684    c0.2295-0.0459,0.4053-0.0693,0.5283-0.0693C815.9673,1566.5757,816.228,1566.8286,816.228,1567.3345z"
           id="path125" /><path
           d="M838.4907,1564.3911c0,1.3945-0.084,2.3154-0.2529,2.7598c-0.3369,0.8281-1.0889,1.2422-2.2539,1.2422    c-1.3496,0-2.1309-0.5527-2.3457-1.6563c-0.7363,1.165-1.9785,1.748-3.7266,1.748c-1.165,0-2.1387-0.2686-2.9209-0.8057    c-0.9043-0.6123-1.3564-1.4795-1.3564-2.5986c0-1.5791,0.6748-2.6367,2.0234-3.1738c0.1074-0.0459,1.3721-0.2832,3.7949-0.7129    c1.3496-0.2305,2.0244-0.79,2.0244-1.6787c0-1.3809-0.8662-2.0703-2.5986-2.0703c-0.3838,0-0.8281,0.0996-1.334,0.2988    c-0.6289,0.2305-0.9512,0.498-0.9668,0.8047c0.3682,0.0928,0.5527,0.4072,0.5527,0.9434c0,0.3223-0.123,0.583-0.3682,0.7822    c-0.2461,0.1992-0.5371,0.2988-0.874,0.2988c-0.3994,0-0.7363-0.1455-1.0117-0.4375c-0.2764-0.291-0.4141-0.6357-0.4141-1.0342    c0-1.0127,0.5137-1.8252,1.541-2.4385c0.874-0.5215,1.8477-0.7822,2.9209-0.7822c1.748,0,2.9746,0.4893,3.6797,1.4658    c0.5361,0.7637,0.8047,1.9316,0.8047,3.5049c0,0.4736-0.0303,1.21-0.0918,2.21s-0.0918,1.7373-0.0918,2.2109    c0,1.0996,0.2949,1.6484,0.8848,1.6484c0.5605,0,0.8398-0.5293,0.8398-1.5889c0-0.1211,0-0.2793,0-0.4766    c0-0.1963,0-0.3252,0-0.3857c0-0.6807,0.2451-1.0215,0.7363-1.0215C838.2222,1563.4478,838.4907,1563.7622,838.4907,1564.3911z     M833.4536,1561.9985c-0.4287,0.4141-1.1885,0.7061-2.2764,0.874c-1.3955,0.1992-2.2158,0.3447-2.4609,0.4375    c-0.7822,0.3066-1.1729,0.8662-1.1729,1.6787c0,0.6436,0.2451,1.1348,0.7354,1.4717c0.4297,0.3066,0.9814,0.46,1.6563,0.46    c1.5645,0,2.5762-0.4902,3.0361-1.4717C833.2007,1564.9585,833.3618,1563.8081,833.4536,1561.9985z"
           id="path127" /><path
           d="M850.4048,1559.1235c0,0.6592-0.1523,1.2041-0.457,1.6328c-0.3496,0.4912-0.8369,0.7363-1.4609,0.7363    c-0.3193,0-0.6055-0.1035-0.8564-0.3105s-0.377-0.4717-0.377-0.7939c0-0.2754,0.0928-0.5059,0.2764-0.6895    s0.3984-0.2764,0.6445-0.2764c0.1064,0,0.2139,0.0156,0.3213,0.0459c0.0918-0.1982,0.1387-0.375,0.1387-0.5283    c0-0.4912-0.2305-0.8896-0.6904-1.1963c-0.3984-0.2764-0.8506-0.4141-1.3574-0.4141c-1.9316,0-2.8975,1.4492-2.8975,4.3467v3.082    c0,0.7979,0.0381,1.3037,0.1152,1.5186c0.0762,0.2148,0.2676,0.3223,0.5742,0.3223c0.0615,0,0.2148-0.0078,0.46-0.0234    c0.2451-0.0146,0.4609-0.0234,0.6445-0.0234c0.5215,0,0.7822,0.2539,0.7822,0.7598c0,0.2451-0.1006,0.4482-0.2988,0.6094    c-0.2002,0.1611-0.4297,0.2412-0.6904,0.2412s-0.6553-0.042-1.1846-0.126c-0.5293-0.085-0.9238-0.127-1.1846-0.127    c-0.2764,0-0.6826,0.042-1.2188,0.127c-0.5371,0.084-0.9434,0.126-1.2188,0.126c-0.2617,0-0.499-0.0771-0.7139-0.2295    c-0.2148-0.1533-0.3213-0.3604-0.3213-0.6211c0-0.4912,0.2529-0.7363,0.7588-0.7363c0.1221,0,0.3105,0.0195,0.5635,0.0576    s0.4258,0.0576,0.5176,0.0576c0.3369,0,0.5439-0.2607,0.6211-0.7822c0.0146-0.123,0.0225-0.5059,0.0225-1.1504v-5.1514    c0-0.6592-0.0078-1.043-0.0225-1.1504c-0.0771-0.4902-0.2842-0.7363-0.6211-0.7363c-0.0615,0-0.2451,0.0156-0.5518,0.0469    c-0.3076,0.0303-0.583,0.0459-0.8281,0.0459c-0.5215,0-0.7822-0.2529-0.7822-0.7598c0-0.2598,0.1074-0.4668,0.3213-0.6201    s0.4512-0.2305,0.7119-0.2305c0.1523,0,0.374,0.042,0.665,0.127c0.291,0.084,0.5127,0.126,0.666,0.126s0.3711-0.042,0.6543-0.126    c0.2822-0.085,0.501-0.127,0.6543-0.127c0.459,0,0.6729,0.4678,0.6426,1.4033h0.0459c0.7031-1.1504,1.7822-1.7256,3.2363-1.7256    c1.0098,0,1.8779,0.292,2.6055,0.874C850.0415,1557.3374,850.4048,1558.1274,850.4048,1559.1235z"
           id="path129" /><path
           d="M862.3647,1559.1235c0,0.6592-0.1523,1.2041-0.457,1.6328c-0.3496,0.4912-0.8369,0.7363-1.4609,0.7363    c-0.3193,0-0.6055-0.1035-0.8564-0.3105s-0.377-0.4717-0.377-0.7939c0-0.2754,0.0928-0.5059,0.2764-0.6895    s0.3984-0.2764,0.6445-0.2764c0.1064,0,0.2139,0.0156,0.3213,0.0459c0.0918-0.1982,0.1387-0.375,0.1387-0.5283    c0-0.4912-0.2305-0.8896-0.6904-1.1963c-0.3984-0.2764-0.8506-0.4141-1.3574-0.4141c-1.9316,0-2.8975,1.4492-2.8975,4.3467v3.082    c0,0.7979,0.0381,1.3037,0.1152,1.5186c0.0762,0.2148,0.2676,0.3223,0.5742,0.3223c0.0615,0,0.2148-0.0078,0.46-0.0234    c0.2451-0.0146,0.4609-0.0234,0.6445-0.0234c0.5215,0,0.7822,0.2539,0.7822,0.7598c0,0.2451-0.1006,0.4482-0.2988,0.6094    c-0.2002,0.1611-0.4297,0.2412-0.6904,0.2412s-0.6553-0.042-1.1846-0.126c-0.5293-0.085-0.9238-0.127-1.1846-0.127    c-0.2764,0-0.6826,0.042-1.2188,0.127c-0.5371,0.084-0.9434,0.126-1.2188,0.126c-0.2617,0-0.499-0.0771-0.7139-0.2295    c-0.2148-0.1533-0.3213-0.3604-0.3213-0.6211c0-0.4912,0.2529-0.7363,0.7588-0.7363c0.1221,0,0.3105,0.0195,0.5635,0.0576    s0.4258,0.0576,0.5176,0.0576c0.3369,0,0.5439-0.2607,0.6211-0.7822c0.0146-0.123,0.0225-0.5059,0.0225-1.1504v-5.1514    c0-0.6592-0.0078-1.043-0.0225-1.1504c-0.0771-0.4902-0.2842-0.7363-0.6211-0.7363c-0.0615,0-0.2451,0.0156-0.5518,0.0469    c-0.3076,0.0303-0.583,0.0459-0.8281,0.0459c-0.5215,0-0.7822-0.2529-0.7822-0.7598c0-0.2598,0.1074-0.4668,0.3213-0.6201    s0.4512-0.2305,0.7119-0.2305c0.1523,0,0.374,0.042,0.665,0.127c0.291,0.084,0.5127,0.126,0.666,0.126s0.3711-0.042,0.6543-0.126    c0.2822-0.085,0.501-0.127,0.6543-0.127c0.459,0,0.6729,0.4678,0.6426,1.4033h0.0459c0.7031-1.1504,1.7822-1.7256,3.2363-1.7256    c1.0098,0,1.8779,0.292,2.6055,0.874C862.0015,1557.3374,862.3647,1558.1274,862.3647,1559.1235z"
           id="path131" /><path
           d="M874.5776,1562.1362c0,1.8252-0.4824,3.3203-1.4492,4.4854c-1.0273,1.2422-2.4375,1.8633-4.2314,1.8633    c-1.7334,0-3.0977-0.6289-4.0938-1.8857c-0.9053-1.1504-1.3574-2.6143-1.3574-4.3936c0-1.7939,0.4521-3.2734,1.3574-4.4385    c0.9961-1.2578,2.3682-1.8867,4.1162-1.8867c1.8252,0,3.2354,0.5986,4.2324,1.7939    C874.1021,1558.7788,874.5776,1560.2661,874.5776,1562.1362z M872.6685,1562.0444c0-1.334-0.2607-2.3994-0.7813-3.1963    c-0.6143-0.9355-1.5566-1.4033-2.8291-1.4033c-1.2578,0-2.208,0.4824-2.8525,1.4492c-0.5674,0.8428-0.8506,1.9238-0.8506,3.2422    c0,1.3193,0.2607,2.4004,0.7822,3.2432c0.6279,1.0273,1.5557,1.541,2.7822,1.541c1.3037,0,2.2773-0.5059,2.9209-1.5176    C872.3931,1564.5444,872.6685,1563.4243,872.6685,1562.0444z"
           id="path133" /><path
           d="M894.7036,1556.9614c0,0.3535-0.2686,0.6367-0.8057,0.8516l-0.8047-0.1611c-0.4756,0-0.9355,0.9277-1.3799,2.7832    c-0.3994,1.7168-0.7979,3.4424-1.1963,5.1748c-0.583,1.8555-1.2725,2.7832-2.0703,2.7832c-0.5518,0-0.9658-0.2529-1.2412-0.7598    c-0.1689-0.3066-0.3301-0.8125-0.4834-1.5176l-1.7021-8.1416h-0.0459l-1.7705,8.0039c-0.1689,0.7969-0.3301,1.334-0.4834,1.6094    c-0.291,0.5371-0.7363,0.8057-1.334,0.8057c-0.7207,0-1.2344-0.5752-1.541-1.7256l-2.0469-7.7051    c-0.1533-0.5518-0.2607-0.8965-0.3223-1.0352c-0.0615-0.1377-0.1611-0.207-0.2988-0.207c-0.0313,0-0.1611,0.0156-0.3906,0.0469    c-0.2305,0.0303-0.4531,0.0459-0.667,0.0459c-0.2305,0-0.4375-0.084-0.6211-0.2529c-0.1846-0.1689-0.2764-0.3682-0.2764-0.5986    c0-0.5059,0.4521-0.7588,1.3574-0.7588c0.2754,0,0.6816,0.042,1.2188,0.127c0.5361,0.084,0.9424,0.126,1.2188,0.126    c0.2607,0,0.6553-0.042,1.1846-0.126c0.5293-0.085,0.9238-0.127,1.1846-0.127c0.5215,0,0.7822,0.2529,0.7822,0.7588    c0,0.5371-0.2764,0.8057-0.8281,0.8057c-0.1533,0-0.3604-0.0195-0.6211-0.0576s-0.4375-0.0576-0.5293-0.0576    c-0.4141,0-0.6211,0.2373-0.6211,0.7129c0,1.0732,0.2383,2.4766,0.7129,4.209c0.3994,1.3652,0.79,2.7373,1.1738,4.1172h0.0459    l1.748-8.0146c0.168-0.8096,0.3213-1.3438,0.46-1.6035c0.291-0.5801,0.7129-0.8701,1.2646-0.8701    c0.5977,0,1.0352,0.2754,1.3115,0.8242c0.1221,0.2598,0.2754,0.8096,0.46,1.6494l1.7012,8.0146h0.0469    c0.3984-1.3955,0.7969-2.791,1.1953-4.1865c0.4756-1.748,0.7129-3.1582,0.7129-4.2314c0-0.4141-0.1992-0.6211-0.5977-0.6211    c-0.123,0-0.3145,0.0264-0.5752,0.0801s-0.4365,0.0811-0.5293,0.0811c-0.2295,0-0.4287-0.084-0.5977-0.2529    s-0.2529-0.3682-0.2529-0.5986c0-0.5059,0.4219-0.7588,1.2646-0.7588c0.2764,0,0.6826,0.042,1.2197,0.127    c0.5361,0.084,0.9424,0.126,1.2188,0.126c0.2607,0,0.6553-0.042,1.1846-0.126c0.5293-0.085,0.9238-0.127,1.1846-0.127    C894.4419,1556.2026,894.7036,1556.4556,894.7036,1556.9614z"
           id="path135" /><path
           d="M912.2974,1563.2593c0,1.5732-0.2148,2.7344-0.6436,3.4834c-0.5674,0.9775-1.5791,1.4658-3.0361,1.4658    c-1.334,0-2.2305-0.4512-2.6914-1.3535c-0.3213-0.6279-0.4824-1.668-0.4824-3.1211v-5.0723c0-0.5654-0.3145-0.8486-0.9434-0.8486    c-0.0303,0-0.0762,0-0.1377,0s-0.1074,0-0.1377,0c-0.6143,0-0.9199-0.2686-0.9199-0.8057c0-0.5205,0.2832-0.7813,0.8506-0.7813    c0.0459,0,0.1152,0,0.207,0c0.1074,0,0.1836,0,0.2295,0c0.5674,0,0.8516-0.2666,0.8516-0.8008    c0-0.0908-0.0117-0.3008-0.0342-0.6289c-0.0234-0.3271-0.0352-0.5898-0.0352-0.7881c0-1.082,0.3223-1.624,0.9658-1.624    c0.6445,0,0.9668,0.5947,0.9668,1.7832c0,0.2441-0.0156,0.5566-0.0469,0.9385c-0.0303,0.3809-0.0459,0.6094-0.0459,0.6855    c0,0.2891,0.2686,0.4346,0.8057,0.4346c0.1523,0,0.4287-0.0117,0.8281-0.0352c0.3984-0.0225,0.6973-0.0342,0.8965-0.0342    c0.8896,0,1.334,0.2949,1.334,0.8848c0,0.5605-0.4443,0.8398-1.334,0.8398c-0.1689,0-0.4336-0.0146-0.793-0.0459    c-0.3613-0.0303-0.625-0.0459-0.7939-0.0459c-0.6289,0-0.9434,0.1758-0.9434,0.5273v5.5518c0,0.8564,0.0771,1.4678,0.2305,1.835    c0.2451,0.5967,0.7275,0.8955,1.4492,0.8955c0.8281,0,1.3262-0.3818,1.4951-1.1445c0.0459-0.7168,0.0996-1.4453,0.1602-2.1855    c0.0615-0.7393,0.3604-1.1094,0.8975-1.1094C912.0142,1562.1597,912.2974,1562.5259,912.2974,1563.2593z"
           id="path137" /><path
           d="M927.7065,1567.312c0,0.5674-0.3291,0.8506-0.9883,0.8506c-0.2607,0-0.6563-0.042-1.1846-0.126    c-0.5293-0.085-0.9238-0.127-1.1846-0.127c-0.2764,0-0.6826,0.042-1.2188,0.127c-0.5371,0.084-0.9434,0.126-1.2197,0.126    c-0.2607,0-0.4902-0.0801-0.6895-0.2412s-0.2988-0.3643-0.2988-0.6094c0-0.4912,0.2529-0.7363,0.7588-0.7363    c0.1221,0,0.3105,0.0195,0.5635,0.0576s0.4258,0.0576,0.5176,0.0576c0.3369,0,0.5439-0.2607,0.6211-0.7822    c0.0303-0.1377,0.0459-0.5215,0.0459-1.1504v-3.4961c0-1.1797-0.1689-2.0693-0.5059-2.668    c-0.4453-0.7666-1.2197-1.1494-2.3232-1.1494c-1.2578,0-2.1543,0.3682-2.6914,1.1035c-0.46,0.6445-0.6895,1.6025-0.6895,2.875    v3.335c0,0.8281,0.0303,1.3418,0.0918,1.541c0.0605,0.2002,0.2295,0.2998,0.5059,0.2998c0.0615,0,0.2188-0.0078,0.4717-0.0234    c0.2529-0.0146,0.4717-0.0234,0.6553-0.0234c0.5215,0,0.7822,0.2539,0.7822,0.7598c0,0.5674-0.3301,0.8506-0.9893,0.8506    c-0.2607,0-0.6553-0.042-1.1846-0.126c-0.5283-0.085-0.9238-0.127-1.1846-0.127c-0.2754,0-0.6826,0.042-1.2188,0.127    c-0.5371,0.084-0.9434,0.126-1.2188,0.126c-0.2607,0-0.4912-0.0801-0.6904-0.2412s-0.2988-0.3643-0.2988-0.6094    c0-0.4912,0.2529-0.7363,0.7588-0.7363c0.123,0,0.3105,0.0195,0.5635,0.0576s0.4258,0.0576,0.5176,0.0576    c0.3369,0,0.5439-0.2607,0.6211-0.7822c0.0303-0.1377,0.0459-0.5215,0.0459-1.1504v-9.3838c0-0.8125-0.0303-1.3262-0.0918-1.541    s-0.2227-0.3223-0.4834-0.3223c-0.0615,0-0.2178,0.0117-0.4707,0.0352c-0.2529,0.0225-0.4795,0.0342-0.6787,0.0342    c-0.5215,0-0.7822-0.2529-0.7822-0.7588c0-0.2305,0.0879-0.4297,0.2646-0.5977c0.1758-0.1689,0.3789-0.2539,0.6094-0.2539    c0.1689,0,0.4219,0.043,0.7588,0.127s0.5898,0.127,0.7588,0.127c0.1533,0,0.3643-0.043,0.6328-0.127s0.4717-0.127,0.6094-0.127    c0.5215,0,0.7822,0.8438,0.7822,2.5303c0,0.5059-0.0234,1.1084-0.0693,1.8057c-0.0459,0.6982-0.0684,1.0547-0.0684,1.0693    c0.9961-0.9961,2.1689-1.4951,3.5186-1.4951c1.8096,0,3.0664,0.5908,3.7725,1.7715c0.5059,0.8438,0.7588,2.1699,0.7588,3.9785    c0,0.3535-0.0117,0.8818-0.0342,1.5869c-0.0234,0.7061-0.0352,1.2197-0.0352,1.541c0,0.6143,0.0156,0.9971,0.0459,1.1504    c0.0771,0.5215,0.2842,0.7822,0.6211,0.7822c0.123,0,0.2988-0.0234,0.5293-0.0693c0.2295-0.0459,0.4063-0.0693,0.5293-0.0693    C927.4458,1566.5522,927.7065,1566.8062,927.7065,1567.312z"
           id="path139" /><path
           d="M939.4136,1559.1235c0,0.6592-0.1523,1.2041-0.457,1.6328c-0.3496,0.4912-0.8369,0.7363-1.4609,0.7363    c-0.3193,0-0.6055-0.1035-0.8564-0.3105s-0.377-0.4717-0.377-0.7939c0-0.2754,0.0928-0.5059,0.2764-0.6895    s0.3984-0.2764,0.6445-0.2764c0.1064,0,0.2139,0.0156,0.3213,0.0459c0.0918-0.1982,0.1387-0.375,0.1387-0.5283    c0-0.4912-0.2305-0.8896-0.6904-1.1963c-0.3984-0.2764-0.8506-0.4141-1.3574-0.4141c-1.9316,0-2.8975,1.4492-2.8975,4.3467v3.082    c0,0.7979,0.0381,1.3037,0.1152,1.5186c0.0762,0.2148,0.2676,0.3223,0.5742,0.3223c0.0615,0,0.2148-0.0078,0.46-0.0234    c0.2451-0.0146,0.4609-0.0234,0.6445-0.0234c0.5215,0,0.7822,0.2539,0.7822,0.7598c0,0.2451-0.1006,0.4482-0.2988,0.6094    c-0.2002,0.1611-0.4297,0.2412-0.6904,0.2412s-0.6553-0.042-1.1846-0.126c-0.5293-0.085-0.9238-0.127-1.1846-0.127    c-0.2764,0-0.6826,0.042-1.2188,0.127c-0.5371,0.084-0.9434,0.126-1.2188,0.126c-0.2617,0-0.499-0.0771-0.7139-0.2295    c-0.2148-0.1533-0.3213-0.3604-0.3213-0.6211c0-0.4912,0.2529-0.7363,0.7588-0.7363c0.1221,0,0.3105,0.0195,0.5635,0.0576    s0.4258,0.0576,0.5176,0.0576c0.3369,0,0.5439-0.2607,0.6211-0.7822c0.0146-0.123,0.0225-0.5059,0.0225-1.1504v-5.1514    c0-0.6592-0.0078-1.043-0.0225-1.1504c-0.0771-0.4902-0.2842-0.7363-0.6211-0.7363c-0.0615,0-0.2451,0.0156-0.5518,0.0469    c-0.3076,0.0303-0.583,0.0459-0.8281,0.0459c-0.5215,0-0.7822-0.2529-0.7822-0.7598c0-0.2598,0.1074-0.4668,0.3213-0.6201    s0.4512-0.2305,0.7119-0.2305c0.1523,0,0.374,0.042,0.665,0.127c0.291,0.084,0.5127,0.126,0.666,0.126s0.3711-0.042,0.6543-0.126    c0.2822-0.085,0.501-0.127,0.6543-0.127c0.459,0,0.6729,0.4678,0.6426,1.4033h0.0459c0.7031-1.1504,1.7822-1.7256,3.2363-1.7256    c1.0098,0,1.8779,0.292,2.6055,0.874C939.0503,1557.3374,939.4136,1558.1274,939.4136,1559.1235z"
           id="path141" /><path
           d="M951.6265,1562.1362c0,1.8252-0.4824,3.3203-1.4492,4.4854c-1.0273,1.2422-2.4375,1.8633-4.2314,1.8633    c-1.7334,0-3.0977-0.6289-4.0938-1.8857c-0.9053-1.1504-1.3574-2.6143-1.3574-4.3936c0-1.7939,0.4521-3.2734,1.3574-4.4385    c0.9961-1.2578,2.3682-1.8867,4.1162-1.8867c1.8252,0,3.2354,0.5986,4.2324,1.7939    C951.1509,1558.7788,951.6265,1560.2661,951.6265,1562.1362z M949.7173,1562.0444c0-1.334-0.2607-2.3994-0.7813-3.1963    c-0.6143-0.9355-1.5566-1.4033-2.8291-1.4033c-1.2578,0-2.208,0.4824-2.8525,1.4492c-0.5674,0.8428-0.8506,1.9238-0.8506,3.2422    c0,1.3193,0.2607,2.4004,0.7822,3.2432c0.6279,1.0273,1.5557,1.541,2.7822,1.541c1.3037,0,2.2773-0.5059,2.9209-1.5176    C949.4419,1564.5444,949.7173,1563.4243,949.7173,1562.0444z"
           id="path143" /><path
           d="M967.2437,1567.312c0,0.2451-0.0996,0.4482-0.2988,0.6094c-0.2002,0.1611-0.4297,0.2412-0.6904,0.2412    c-0.1533,0-0.3721-0.042-0.6553-0.126c-0.2842-0.085-0.5029-0.127-0.6553-0.127c-0.1543,0-0.376,0.042-0.667,0.127    c-0.292,0.084-0.5146,0.126-0.667,0.126c-0.3994,0-0.583-0.4678-0.5527-1.4033h-0.0459c-0.751,1.1504-1.9932,1.7256-3.7256,1.7256    c-1.7637,0-2.9824-0.5371-3.6572-1.6104c-0.5059-0.7969-0.7588-2.0391-0.7588-3.7256c0-0.3984,0.0146-0.9932,0.0459-1.7832    c0.0303-0.7891,0.0459-1.376,0.0459-1.7588c0-1.2881-0.2607-1.9326-0.7822-1.9326c-0.123,0-0.2988,0.0234-0.5283,0.0693    c-0.2305,0.0459-0.4072,0.0693-0.5293,0.0693c-0.5215,0-0.7822-0.2529-0.7822-0.7598c0-0.5664,0.376-0.8506,1.127-0.8506    c0.1533,0,0.376,0.042,0.667,0.127c0.291,0.084,0.5137,0.126,0.667,0.126s0.3721-0.042,0.6553-0.126    c0.2842-0.085,0.5029-0.127,0.6563-0.127c0.5205,0,0.7813,0.8662,0.7813,2.5986c0,0.5215-0.0264,1.1885-0.0801,2.001    c-0.0537,0.8135-0.0801,1.2734-0.0801,1.3809c0,1.5635,0.1064,2.6299,0.3213,3.1963c0.3838,1.0273,1.2266,1.541,2.5303,1.541    c1.4873,0,2.4688-0.6211,2.9443-1.8623c0.291-0.7363,0.4365-1.9932,0.4365-3.7725v-1.6787c0-0.7822-0.0576-1.2803-0.1719-1.4951    c-0.1152-0.2148-0.3574-0.3223-0.7246-0.3223c-0.0771,0-0.2227,0-0.4375,0c-0.2148,0.0156-0.3984,0.0234-0.5518,0.0234    c-0.5215,0-0.7822-0.2529-0.7822-0.7598c0-0.2598,0.1113-0.4668,0.334-0.6201c0.2217-0.1533,0.4707-0.2305,0.7471-0.2305    c0.1689,0,0.4063,0.042,0.7129,0.127c0.3066,0.084,0.5439,0.126,0.7129,0.126c0.1533,0,0.3721-0.042,0.6563-0.126    c0.2832-0.085,0.502-0.127,0.6553-0.127c0.4902,0,0.7354,0.6367,0.7354,1.9092c0,0.3223-0.0186,0.7402-0.0566,1.2529    c-0.0391,0.5146-0.0576,0.8174-0.0576,0.9092v4.4844c0,0.8135,0.0303,1.3232,0.0918,1.5303    c0.0605,0.207,0.2373,0.3105,0.5293,0.3105c0.0605,0,0.2139-0.0078,0.46-0.0234c0.2451-0.0146,0.46-0.0234,0.6436-0.0234    C966.9829,1566.5522,967.2437,1566.8062,967.2437,1567.312z"
           id="path145" /><path
           d="M980.6294,1555.7661c0,0.3525-0.123,0.6631-0.3682,0.9307c-0.2451,0.2686-0.5371,0.4033-0.874,0.4033    c-0.2451,0-0.46-0.0889-0.6436-0.2646c-0.1846-0.1768-0.2764-0.3877-0.2764-0.6328c0-0.2764,0.1689-0.5293,0.5059-0.7588    c-0.2148-0.3066-0.5371-0.46-0.9658-0.46c-0.3682,0-0.6709,0.126-0.9082,0.3789c-0.2383,0.2529-0.3564,0.5635-0.3564,0.9316    v0.2529c1.1953,0.7061,1.7939,1.7871,1.7939,3.2432c0,1.166-0.4453,2.1162-1.334,2.8525    c-0.8281,0.6895-1.8408,1.0342-3.0361,1.0342c-0.4141,0-0.9893-0.1299-1.7256-0.3906c-0.7354-0.2607-1.25-0.3906-1.541-0.3906    c-0.2451,0-0.4482,0.1035-0.6094,0.3105s-0.2412,0.4326-0.2412,0.6777c0,0.6602,0.8428,1.043,2.5303,1.1504    c2.5605,0.1836,4.1396,0.3604,4.7373,0.5293c1.6865,0.5059,2.5303,1.5635,2.5303,3.1738c0,1.3184-0.6953,2.2998-2.085,2.9443    c-1.0693,0.4902-2.3447,0.7354-3.8252,0.7354c-1.498,0-2.75-0.2295-3.7578-0.6895c-1.3594-0.6143-2.0391-1.5723-2.0391-2.875    c0-0.6445,0.1992-1.208,0.5967-1.6904c0.3975-0.4834,0.9043-0.8242,1.5195-1.0244v-0.0459    c-1.2881-0.4287-1.9326-1.1572-1.9326-2.1846c0-0.5674,0.1924-1.0576,0.5752-1.4717c0.3369-0.3984,0.79-0.6826,1.3574-0.8516    c-0.4297-0.4902-0.6445-1.1572-0.6445-2.001c0-1.1191,0.4678-2.0391,1.4033-2.7598c0.8584-0.6445,1.8633-0.9658,3.0127-0.9658    c0.4756,0,0.9277,0.0615,1.3574,0.1836c-0.0313-0.7051,0.2295-1.2881,0.7822-1.748c0.5205-0.4141,1.1416-0.6211,1.8623-0.6211    c0.6748,0,1.2773,0.1846,1.8057,0.5527C980.3647,1554.5923,980.6294,1555.1069,980.6294,1555.7661z M977.938,1568.7837    c0-1.3955-1.2959-2.0928-3.8867-2.0928c-2.668,0-4.002,0.7129-4.002,2.1387c0,0.7969,0.4873,1.3721,1.4629,1.7246    c0.6709,0.2451,1.4863,0.3682,2.4473,0.3682c0.96,0,1.791-0.1299,2.4922-0.3906    C977.4429,1570.1636,977.938,1569.5806,977.938,1568.7837z M976.7651,1559.7446c0-0.7051-0.2686-1.2764-0.8047-1.7139    c-0.5371-0.4365-1.166-0.6553-1.8867-0.6553s-1.334,0.2227-1.8398,0.667c-0.5059,0.4453-0.7588,1.0205-0.7588,1.7256    c0,0.7207,0.2451,1.2959,0.7363,1.7246c0.4902,0.4297,1.1035,0.6436,1.8398,0.6436c0.751,0,1.3916-0.2139,1.9209-0.6436    C976.5005,1561.064,976.7651,1560.481,976.7651,1559.7446z"
           id="path147" /><path
           d="M995.3267,1567.312c0,0.5674-0.3291,0.8506-0.9883,0.8506c-0.2607,0-0.6563-0.042-1.1846-0.126    c-0.5293-0.085-0.9238-0.127-1.1846-0.127c-0.2764,0-0.6826,0.042-1.2188,0.127c-0.5371,0.084-0.9434,0.126-1.2197,0.126    c-0.2607,0-0.4902-0.0801-0.6895-0.2412s-0.2988-0.3643-0.2988-0.6094c0-0.4912,0.2529-0.7363,0.7588-0.7363    c0.1221,0,0.3105,0.0195,0.5635,0.0576s0.4258,0.0576,0.5176,0.0576c0.3369,0,0.5439-0.2607,0.6211-0.7822    c0.0303-0.1377,0.0459-0.5215,0.0459-1.1504v-3.4961c0-1.1797-0.1689-2.0693-0.5059-2.668    c-0.4453-0.7666-1.2197-1.1494-2.3232-1.1494c-1.2578,0-2.1543,0.3682-2.6914,1.1035c-0.46,0.6445-0.6895,1.6025-0.6895,2.875    v3.335c0,0.8281,0.0303,1.3418,0.0918,1.541c0.0605,0.2002,0.2295,0.2998,0.5059,0.2998c0.0615,0,0.2188-0.0078,0.4717-0.0234    c0.2529-0.0146,0.4717-0.0234,0.6553-0.0234c0.5215,0,0.7822,0.2539,0.7822,0.7598c0,0.5674-0.3301,0.8506-0.9893,0.8506    c-0.2607,0-0.6553-0.042-1.1846-0.126c-0.5283-0.085-0.9238-0.127-1.1846-0.127c-0.2754,0-0.6826,0.042-1.2188,0.127    c-0.5371,0.084-0.9434,0.126-1.2188,0.126c-0.2607,0-0.4912-0.0801-0.6904-0.2412s-0.2988-0.3643-0.2988-0.6094    c0-0.4912,0.2529-0.7363,0.7588-0.7363c0.123,0,0.3105,0.0195,0.5635,0.0576s0.4258,0.0576,0.5176,0.0576    c0.3369,0,0.5439-0.2607,0.6211-0.7822c0.0303-0.1377,0.0459-0.5215,0.0459-1.1504v-9.3838c0-0.8125-0.0303-1.3262-0.0918-1.541    s-0.2227-0.3223-0.4834-0.3223c-0.0615,0-0.2178,0.0117-0.4707,0.0352c-0.2529,0.0225-0.4795,0.0342-0.6787,0.0342    c-0.5215,0-0.7822-0.2529-0.7822-0.7588c0-0.2305,0.0879-0.4297,0.2646-0.5977c0.1758-0.1689,0.3789-0.2539,0.6094-0.2539    c0.1689,0,0.4219,0.043,0.7588,0.127s0.5898,0.127,0.7588,0.127c0.1533,0,0.3643-0.043,0.6328-0.127s0.4717-0.127,0.6094-0.127    c0.5215,0,0.7822,0.8438,0.7822,2.5303c0,0.5059-0.0234,1.1084-0.0693,1.8057c-0.0459,0.6982-0.0684,1.0547-0.0684,1.0693    c0.9961-0.9961,2.1689-1.4951,3.5186-1.4951c1.8096,0,3.0664,0.5908,3.7725,1.7715c0.5059,0.8438,0.7588,2.1699,0.7588,3.9785    c0,0.3535-0.0117,0.8818-0.0342,1.5869c-0.0234,0.7061-0.0352,1.2197-0.0352,1.541c0,0.6143,0.0156,0.9971,0.0459,1.1504    c0.0771,0.5215,0.2842,0.7822,0.6211,0.7822c0.123,0,0.2988-0.0234,0.5293-0.0693c0.2295-0.0459,0.4063-0.0693,0.5293-0.0693    C995.0659,1566.5522,995.3267,1566.8062,995.3267,1567.312z"
           id="path149" /><path
           d="M1013.0356,1563.2593c0,1.5732-0.2148,2.7344-0.6436,3.4834c-0.5674,0.9775-1.5791,1.4658-3.0361,1.4658    c-1.334,0-2.2305-0.4512-2.6914-1.3535c-0.3213-0.6279-0.4824-1.668-0.4824-3.1211v-5.0723c0-0.5654-0.3145-0.8486-0.9434-0.8486    c-0.0303,0-0.0762,0-0.1377,0s-0.1074,0-0.1377,0c-0.6143,0-0.9199-0.2686-0.9199-0.8057c0-0.5205,0.2832-0.7813,0.8506-0.7813    c0.0459,0,0.1152,0,0.207,0c0.1074,0,0.1836,0,0.2295,0c0.5674,0,0.8516-0.2666,0.8516-0.8008    c0-0.0908-0.0117-0.3008-0.0342-0.6289c-0.0234-0.3271-0.0352-0.5898-0.0352-0.7881c0-1.082,0.3223-1.624,0.9658-1.624    c0.6445,0,0.9668,0.5947,0.9668,1.7832c0,0.2441-0.0156,0.5566-0.0469,0.9385c-0.0303,0.3809-0.0459,0.6094-0.0459,0.6855    c0,0.2891,0.2686,0.4346,0.8057,0.4346c0.1523,0,0.4287-0.0117,0.8281-0.0352c0.3984-0.0225,0.6973-0.0342,0.8965-0.0342    c0.8896,0,1.334,0.2949,1.334,0.8848c0,0.5605-0.4443,0.8398-1.334,0.8398c-0.1689,0-0.4336-0.0146-0.793-0.0459    c-0.3613-0.0303-0.625-0.0459-0.7939-0.0459c-0.6289,0-0.9434,0.1758-0.9434,0.5273v5.5518c0,0.8564,0.0771,1.4678,0.2305,1.835    c0.2451,0.5967,0.7275,0.8955,1.4492,0.8955c0.8281,0,1.3262-0.3818,1.4951-1.1445c0.0459-0.7168,0.0996-1.4453,0.1602-2.1855    c0.0615-0.7393,0.3604-1.1094,0.8975-1.1094C1012.7524,1562.1597,1013.0356,1562.5259,1013.0356,1563.2593z"
           id="path151" /><path
           d="M1028.4458,1567.312c0,0.5674-0.3291,0.8506-0.9883,0.8506c-0.2607,0-0.6563-0.042-1.1846-0.126    c-0.5293-0.085-0.9238-0.127-1.1846-0.127c-0.2764,0-0.6826,0.042-1.2188,0.127c-0.5371,0.084-0.9434,0.126-1.2197,0.126    c-0.2607,0-0.4902-0.0801-0.6895-0.2412s-0.2988-0.3643-0.2988-0.6094c0-0.4912,0.2529-0.7363,0.7588-0.7363    c0.1221,0,0.3105,0.0195,0.5635,0.0576s0.4258,0.0576,0.5176,0.0576c0.3369,0,0.5439-0.2607,0.6211-0.7822    c0.0303-0.1377,0.0459-0.5215,0.0459-1.1504v-3.4961c0-1.1797-0.1689-2.0693-0.5059-2.668    c-0.4453-0.7666-1.2197-1.1494-2.3232-1.1494c-1.2578,0-2.1543,0.3682-2.6914,1.1035c-0.46,0.6445-0.6895,1.6025-0.6895,2.875    v3.335c0,0.8281,0.0303,1.3418,0.0918,1.541c0.0605,0.2002,0.2295,0.2998,0.5059,0.2998c0.0615,0,0.2188-0.0078,0.4717-0.0234    c0.2529-0.0146,0.4717-0.0234,0.6553-0.0234c0.5215,0,0.7822,0.2539,0.7822,0.7598c0,0.5674-0.3301,0.8506-0.9893,0.8506    c-0.2607,0-0.6553-0.042-1.1846-0.126c-0.5283-0.085-0.9238-0.127-1.1846-0.127c-0.2754,0-0.6826,0.042-1.2188,0.127    c-0.5371,0.084-0.9434,0.126-1.2188,0.126c-0.2607,0-0.4912-0.0801-0.6904-0.2412s-0.2988-0.3643-0.2988-0.6094    c0-0.4912,0.2529-0.7363,0.7588-0.7363c0.123,0,0.3105,0.0195,0.5635,0.0576s0.4258,0.0576,0.5176,0.0576    c0.3369,0,0.5439-0.2607,0.6211-0.7822c0.0303-0.1377,0.0459-0.5215,0.0459-1.1504v-9.3838c0-0.8125-0.0303-1.3262-0.0918-1.541    s-0.2227-0.3223-0.4834-0.3223c-0.0615,0-0.2178,0.0117-0.4707,0.0352c-0.2529,0.0225-0.4795,0.0342-0.6787,0.0342    c-0.5215,0-0.7822-0.2529-0.7822-0.7588c0-0.2305,0.0879-0.4297,0.2646-0.5977c0.1758-0.1689,0.3789-0.2539,0.6094-0.2539    c0.1689,0,0.4219,0.043,0.7588,0.127s0.5898,0.127,0.7588,0.127c0.1533,0,0.3643-0.043,0.6328-0.127s0.4717-0.127,0.6094-0.127    c0.5215,0,0.7822,0.8438,0.7822,2.5303c0,0.5059-0.0234,1.1084-0.0693,1.8057c-0.0459,0.6982-0.0684,1.0547-0.0684,1.0693    c0.9961-0.9961,2.1689-1.4951,3.5186-1.4951c1.8096,0,3.0664,0.5908,3.7725,1.7715c0.5059,0.8438,0.7588,2.1699,0.7588,3.9785    c0,0.3535-0.0117,0.8818-0.0342,1.5869c-0.0234,0.7061-0.0352,1.2197-0.0352,1.541c0,0.6143,0.0156,0.9971,0.0459,1.1504    c0.0771,0.5215,0.2842,0.7822,0.6211,0.7822c0.123,0,0.2988-0.0234,0.5293-0.0693c0.2295-0.0459,0.4063-0.0693,0.5293-0.0693    C1028.1851,1566.5522,1028.4458,1566.8062,1028.4458,1567.312z"
           id="path153" /><path
           d="M1040.0835,1561.1938c0,0.583-0.0537,0.9355-0.1602,1.0576c-0.1074,0.123-0.4219,0.1846-0.9434,0.1846h-7.7969v0.2988    c-0.0156,1.165,0.2988,2.1387,0.9424,2.9209c0.6904,0.8438,1.6104,1.2646,2.7607,1.2646c1.0264,0,1.8086-0.2832,2.3457-0.8506    c0.2607-0.2764,0.5518-0.8047,0.874-1.5869c0.2451-0.5674,0.5215-0.8516,0.8281-0.8516c0.2607,0,0.4785,0.085,0.6553,0.2529    c0.1758,0.1689,0.2646,0.376,0.2646,0.6211c0,1.1816-0.5752,2.1621-1.7256,2.9443c-1.042,0.6904-2.1689,1.0352-3.3809,1.0352    c-1.7324,0-3.0967-0.5898-4.0938-1.7715c-0.9199-1.1191-1.3799-2.5605-1.3799-4.3232c0-1.8096,0.4678-3.3203,1.4033-4.5313    c1.0264-1.3184,2.4219-1.9785,4.1855-1.9785c1.5332,0,2.7871,0.499,3.7607,1.4951    C1039.5972,1558.3726,1040.0835,1559.645,1040.0835,1561.1938z M1038.1753,1560.7798c-0.0615-0.9971-0.376-1.8018-0.9434-2.415    s-1.334-0.9199-2.2998-0.9199s-1.7793,0.3105-2.4385,0.9316s-1.0273,1.4219-1.1035,2.4033H1038.1753z"
           id="path155" /><path
           d="M1064.7847,1567.312c0,0.5674-0.3291,0.8506-0.9883,0.8506c-0.2607,0-0.6563-0.042-1.1846-0.126    c-0.5293-0.085-0.9238-0.127-1.1846-0.127c-0.2764,0-0.6826,0.042-1.2188,0.127c-0.5371,0.084-0.9434,0.126-1.2197,0.126    c-0.2607,0-0.4902-0.0801-0.6895-0.2412s-0.2988-0.3643-0.2988-0.6094c0-0.4912,0.2529-0.7363,0.7588-0.7363    c0.1221,0,0.3105,0.0195,0.5635,0.0576s0.4258,0.0576,0.5176,0.0576c0.3369,0,0.5439-0.2607,0.6211-0.7822    c0.0303-0.1377,0.0459-0.5215,0.0459-1.1504v-3.4961c0-1.1797-0.1689-2.0693-0.5059-2.668    c-0.4453-0.7666-1.2197-1.1494-2.3232-1.1494c-1.2578,0-2.1543,0.3682-2.6914,1.1035c-0.46,0.6445-0.6895,1.6025-0.6895,2.875    v3.335c0,0.8281,0.0303,1.3418,0.0918,1.541c0.0605,0.2002,0.2295,0.2998,0.5059,0.2998c0.0615,0,0.2188-0.0078,0.4717-0.0234    c0.2529-0.0146,0.4717-0.0234,0.6553-0.0234c0.5215,0,0.7822,0.2539,0.7822,0.7598c0,0.5674-0.3301,0.8506-0.9893,0.8506    c-0.2607,0-0.6553-0.042-1.1846-0.126c-0.5283-0.085-0.9238-0.127-1.1846-0.127c-0.2754,0-0.6826,0.042-1.2188,0.127    c-0.5371,0.084-0.9434,0.126-1.2188,0.126c-0.2607,0-0.4912-0.0801-0.6904-0.2412s-0.2988-0.3643-0.2988-0.6094    c0-0.4912,0.2529-0.7363,0.7588-0.7363c0.123,0,0.3105,0.0195,0.5635,0.0576s0.4258,0.0576,0.5176,0.0576    c0.3369,0,0.5439-0.2607,0.6211-0.7822c0.0303-0.1377,0.0459-0.5215,0.0459-1.1504v-9.3838c0-0.8125-0.0303-1.3262-0.0918-1.541    s-0.2227-0.3223-0.4834-0.3223c-0.0615,0-0.2178,0.0117-0.4707,0.0352c-0.2529,0.0225-0.4795,0.0342-0.6787,0.0342    c-0.5215,0-0.7822-0.2529-0.7822-0.7588c0-0.2305,0.0879-0.4297,0.2646-0.5977c0.1758-0.1689,0.3789-0.2539,0.6094-0.2539    c0.1689,0,0.4219,0.043,0.7588,0.127s0.5898,0.127,0.7588,0.127c0.1533,0,0.3643-0.043,0.6328-0.127s0.4717-0.127,0.6094-0.127    c0.5215,0,0.7822,0.8438,0.7822,2.5303c0,0.5059-0.0234,1.1084-0.0693,1.8057c-0.0459,0.6982-0.0684,1.0547-0.0684,1.0693    c0.9961-0.9961,2.1689-1.4951,3.5186-1.4951c1.8096,0,3.0664,0.5908,3.7725,1.7715c0.5059,0.8438,0.7588,2.1699,0.7588,3.9785    c0,0.3535-0.0117,0.8818-0.0342,1.5869c-0.0234,0.7061-0.0352,1.2197-0.0352,1.541c0,0.6143,0.0156,0.9971,0.0459,1.1504    c0.0771,0.5215,0.2842,0.7822,0.6211,0.7822c0.123,0,0.2988-0.0234,0.5293-0.0693c0.2295-0.0459,0.4063-0.0693,0.5293-0.0693    C1064.5239,1566.5522,1064.7847,1566.8062,1064.7847,1567.312z"
           id="path157" /><path
           d="M1076.4224,1561.1938c0,0.583-0.0537,0.9355-0.1602,1.0576c-0.1074,0.123-0.4219,0.1846-0.9434,0.1846h-7.7969v0.2988    c-0.0156,1.165,0.2988,2.1387,0.9424,2.9209c0.6904,0.8438,1.6104,1.2646,2.7607,1.2646c1.0264,0,1.8086-0.2832,2.3457-0.8506    c0.2607-0.2764,0.5518-0.8047,0.874-1.5869c0.2451-0.5674,0.5215-0.8516,0.8281-0.8516c0.2607,0,0.4785,0.085,0.6553,0.2529    c0.1758,0.1689,0.2646,0.376,0.2646,0.6211c0,1.1816-0.5752,2.1621-1.7256,2.9443c-1.042,0.6904-2.1689,1.0352-3.3809,1.0352    c-1.7324,0-3.0967-0.5898-4.0938-1.7715c-0.9199-1.1191-1.3799-2.5605-1.3799-4.3232c0-1.8096,0.4678-3.3203,1.4033-4.5313    c1.0264-1.3184,2.4219-1.9785,4.1855-1.9785c1.5332,0,2.7871,0.499,3.7607,1.4951    C1075.936,1558.3726,1076.4224,1559.645,1076.4224,1561.1938z M1074.5142,1560.7798c-0.0615-0.9971-0.376-1.8018-0.9434-2.415    s-1.334-0.9199-2.2998-0.9199s-1.7793,0.3105-2.4385,0.9316s-1.0273,1.4219-1.1035,2.4033H1074.5142z"
           id="path159" /><path
           d="M1090.7974,1564.3911c0,1.3945-0.084,2.3154-0.2529,2.7598c-0.3369,0.8281-1.0889,1.2422-2.2539,1.2422    c-1.3496,0-2.1309-0.5527-2.3457-1.6563c-0.7363,1.165-1.9785,1.748-3.7266,1.748c-1.165,0-2.1387-0.2686-2.9209-0.8057    c-0.9043-0.6123-1.3564-1.4795-1.3564-2.5986c0-1.5791,0.6748-2.6367,2.0234-3.1738c0.1074-0.0459,1.3721-0.2832,3.7949-0.7129    c1.3496-0.2305,2.0244-0.79,2.0244-1.6787c0-1.3809-0.8662-2.0703-2.5986-2.0703c-0.3838,0-0.8281,0.0996-1.334,0.2988    c-0.6289,0.2305-0.9512,0.498-0.9668,0.8047c0.3682,0.0928,0.5527,0.4072,0.5527,0.9434c0,0.3223-0.123,0.583-0.3682,0.7822    c-0.2461,0.1992-0.5371,0.2988-0.874,0.2988c-0.3994,0-0.7363-0.1455-1.0117-0.4375c-0.2764-0.291-0.4141-0.6357-0.4141-1.0342    c0-1.0127,0.5137-1.8252,1.541-2.4385c0.874-0.5215,1.8477-0.7822,2.9209-0.7822c1.748,0,2.9746,0.4893,3.6797,1.4658    c0.5361,0.7637,0.8047,1.9316,0.8047,3.5049c0,0.4736-0.0303,1.21-0.0918,2.21s-0.0918,1.7373-0.0918,2.2109    c0,1.0996,0.2949,1.6484,0.8848,1.6484c0.5605,0,0.8398-0.5293,0.8398-1.5889c0-0.1211,0-0.2793,0-0.4766    c0-0.1963,0-0.3252,0-0.3857c0-0.6807,0.2451-1.0215,0.7363-1.0215C1090.5288,1563.4478,1090.7974,1563.7622,1090.7974,1564.3911z     M1085.7603,1561.9985c-0.4287,0.4141-1.1885,0.7061-2.2764,0.874c-1.3955,0.1992-2.2158,0.3447-2.4609,0.4375    c-0.7822,0.3066-1.1729,0.8662-1.1729,1.6787c0,0.6436,0.2451,1.1348,0.7354,1.4717c0.4297,0.3066,0.9814,0.46,1.6563,0.46    c1.5645,0,2.5762-0.4902,3.0361-1.4717C1085.5073,1564.9585,1085.6685,1563.8081,1085.7603,1561.9985z"
           id="path161" /><path
           d="M1102.7114,1559.1235c0,0.6592-0.1523,1.2041-0.457,1.6328c-0.3496,0.4912-0.8369,0.7363-1.4609,0.7363    c-0.3193,0-0.6055-0.1035-0.8564-0.3105s-0.377-0.4717-0.377-0.7939c0-0.2754,0.0928-0.5059,0.2764-0.6895    s0.3984-0.2764,0.6445-0.2764c0.1064,0,0.2139,0.0156,0.3213,0.0459c0.0918-0.1982,0.1387-0.375,0.1387-0.5283    c0-0.4912-0.2305-0.8896-0.6904-1.1963c-0.3984-0.2764-0.8506-0.4141-1.3574-0.4141c-1.9316,0-2.8975,1.4492-2.8975,4.3467v3.082    c0,0.7979,0.0381,1.3037,0.1152,1.5186c0.0762,0.2148,0.2676,0.3223,0.5742,0.3223c0.0615,0,0.2148-0.0078,0.46-0.0234    c0.2451-0.0146,0.4609-0.0234,0.6445-0.0234c0.5215,0,0.7822,0.2539,0.7822,0.7598c0,0.2451-0.1006,0.4482-0.2988,0.6094    c-0.2002,0.1611-0.4297,0.2412-0.6904,0.2412s-0.6553-0.042-1.1846-0.126c-0.5293-0.085-0.9238-0.127-1.1846-0.127    c-0.2764,0-0.6826,0.042-1.2188,0.127c-0.5371,0.084-0.9434,0.126-1.2188,0.126c-0.2617,0-0.499-0.0771-0.7139-0.2295    c-0.2148-0.1533-0.3213-0.3604-0.3213-0.6211c0-0.4912,0.2529-0.7363,0.7588-0.7363c0.1221,0,0.3105,0.0195,0.5635,0.0576    s0.4258,0.0576,0.5176,0.0576c0.3369,0,0.5439-0.2607,0.6211-0.7822c0.0146-0.123,0.0225-0.5059,0.0225-1.1504v-5.1514    c0-0.6592-0.0078-1.043-0.0225-1.1504c-0.0771-0.4902-0.2842-0.7363-0.6211-0.7363c-0.0615,0-0.2451,0.0156-0.5518,0.0469    c-0.3076,0.0303-0.583,0.0459-0.8281,0.0459c-0.5215,0-0.7822-0.2529-0.7822-0.7598c0-0.2598,0.1074-0.4668,0.3213-0.6201    s0.4512-0.2305,0.7119-0.2305c0.1523,0,0.374,0.042,0.665,0.127c0.291,0.084,0.5127,0.126,0.666,0.126s0.3711-0.042,0.6543-0.126    c0.2822-0.085,0.501-0.127,0.6543-0.127c0.459,0,0.6729,0.4678,0.6426,1.4033h0.0459c0.7031-1.1504,1.7822-1.7256,3.2363-1.7256    c1.0098,0,1.8779,0.292,2.6055,0.874C1102.3481,1557.3374,1102.7114,1558.1274,1102.7114,1559.1235z"
           id="path163" /><path
           d="M1111.9341,1563.2593c0,1.5732-0.2148,2.7344-0.6436,3.4834c-0.5674,0.9775-1.5791,1.4658-3.0361,1.4658    c-1.334,0-2.2305-0.4512-2.6914-1.3535c-0.3213-0.6279-0.4824-1.668-0.4824-3.1211v-5.0723c0-0.5654-0.3145-0.8486-0.9434-0.8486    c-0.0303,0-0.0762,0-0.1377,0s-0.1074,0-0.1377,0c-0.6143,0-0.9199-0.2686-0.9199-0.8057c0-0.5205,0.2832-0.7813,0.8506-0.7813    c0.0459,0,0.1152,0,0.207,0c0.1074,0,0.1836,0,0.2295,0c0.5674,0,0.8516-0.2666,0.8516-0.8008    c0-0.0908-0.0117-0.3008-0.0342-0.6289c-0.0234-0.3271-0.0352-0.5898-0.0352-0.7881c0-1.082,0.3223-1.624,0.9658-1.624    c0.6445,0,0.9668,0.5947,0.9668,1.7832c0,0.2441-0.0156,0.5566-0.0469,0.9385c-0.0303,0.3809-0.0459,0.6094-0.0459,0.6855    c0,0.2891,0.2686,0.4346,0.8057,0.4346c0.1523,0,0.4287-0.0117,0.8281-0.0352c0.3984-0.0225,0.6973-0.0342,0.8965-0.0342    c0.8896,0,1.334,0.2949,1.334,0.8848c0,0.5605-0.4443,0.8398-1.334,0.8398c-0.1689,0-0.4336-0.0146-0.793-0.0459    c-0.3613-0.0303-0.625-0.0459-0.7939-0.0459c-0.6289,0-0.9434,0.1758-0.9434,0.5273v5.5518c0,0.8564,0.0771,1.4678,0.2305,1.835    c0.2451,0.5967,0.7275,0.8955,1.4492,0.8955c0.8281,0,1.3262-0.3818,1.4951-1.1445c0.0459-0.7168,0.0996-1.4453,0.1602-2.1855    c0.0615-0.7393,0.3604-1.1094,0.8975-1.1094C1111.6509,1562.1597,1111.9341,1562.5259,1111.9341,1563.2593z"
           id="path165" /><path
           d="M1132.8638,1562.1362c0,1.8252-0.4824,3.3203-1.4492,4.4854c-1.0273,1.2422-2.4375,1.8633-4.2314,1.8633    c-1.7334,0-3.0977-0.6289-4.0938-1.8857c-0.9053-1.1504-1.3574-2.6143-1.3574-4.3936c0-1.7939,0.4521-3.2734,1.3574-4.4385    c0.9961-1.2578,2.3682-1.8867,4.1162-1.8867c1.8252,0,3.2354,0.5986,4.2324,1.7939    C1132.3882,1558.7788,1132.8638,1560.2661,1132.8638,1562.1362z M1130.9546,1562.0444c0-1.334-0.2607-2.3994-0.7813-3.1963    c-0.6143-0.9355-1.5566-1.4033-2.8291-1.4033c-1.2578,0-2.208,0.4824-2.8525,1.4492c-0.5674,0.8428-0.8506,1.9238-0.8506,3.2422    c0,1.3193,0.2607,2.4004,0.7822,3.2432c0.6279,1.0273,1.5557,1.541,2.7822,1.541c1.3037,0,2.2773-0.5059,2.9209-1.5176    C1130.6792,1564.5444,1130.9546,1563.4243,1130.9546,1562.0444z"
           id="path167" /><path
           d="M1143.812,1553.9946c0,0.7979-0.3994,1.1963-1.1963,1.1963c-0.2764,0-0.5215-0.0996-0.7363-0.2988    s-0.3213-0.4375-0.3213-0.7139l0.2295-0.5977c-0.2295-0.2451-0.6289-0.3682-1.1963-0.3682c-1.4414,0-2.1611,0.8896-2.1611,2.668    c0,0.4297,0.2754,0.6445,0.8271,0.6445c0.1074,0,0.2959-0.0117,0.5645-0.0352c0.2676-0.0225,0.4707-0.0342,0.6094-0.0342    c0.6279,0,0.9424,0.2764,0.9424,0.8281c0,0.583-0.3984,0.874-1.1953,0.874c-0.1074,0-0.2842,0-0.5293,0    c-0.2305,0-0.3916,0-0.4834,0c-0.4902,0-0.7354,0.1387-0.7354,0.415v6.873c0,0.8301,0.207,1.2451,0.6211,1.2451    c0.0762,0,0.2373-0.0234,0.4824-0.0693s0.4521-0.0693,0.6211-0.0693c0.5215,0,0.7822,0.2539,0.7822,0.7598    c0,0.2451-0.1006,0.4482-0.2988,0.6094c-0.2002,0.1611-0.4297,0.2412-0.6904,0.2412s-0.6523-0.042-1.1729-0.126    c-0.5215-0.085-0.9199-0.127-1.1963-0.127c-0.2754,0-0.6826,0.042-1.2188,0.127c-0.5371,0.084-0.9434,0.126-1.2188,0.126    c-0.2461,0-0.4717-0.084-0.6787-0.2529s-0.3105-0.3682-0.3105-0.5977c0-0.4912,0.2529-0.7363,0.7588-0.7363    c0.123,0,0.3105,0.0195,0.5635,0.0576s0.4258,0.0576,0.5176,0.0576c0.4443,0,0.667-0.4346,0.667-1.3037v-6.4746    c0-0.5029-0.2764-0.7549-0.8281-0.7549c-0.0771,0-0.207,0-0.3906,0c-0.1689,0-0.2988,0-0.3916,0    c-0.582,0-0.874-0.2871-0.874-0.8623c0-0.5596,0.3145-0.8398,0.9434-0.8398c0.1074,0,0.2529,0,0.4375,0    c0.1836,0,0.3213,0,0.4141,0c0.46,0,0.6895-0.1748,0.6895-0.5234c0-2.748,1.3115-4.1221,3.9326-4.1221    c0.8135,0,1.5186,0.1602,2.1162,0.4824C1143.4438,1552.6919,1143.812,1553.2583,1143.812,1553.9946z"
           id="path169" /><path
           d="M1170.0093,1552.9595c0,0.5059-0.2568,0.7588-0.7705,0.7588c-0.1211,0-0.3027-0.0146-0.5439-0.0459    c-0.2422-0.0303-0.4082-0.0459-0.499-0.0459c-0.8457,0-1.2686,0.752-1.2686,2.2539c0,0.2002,0,0.46,0,0.7822s0,0.5371,0,0.6445    v8.1875c0,1.9932-0.5859,2.9902-1.7568,2.9902c-0.5234,0-0.9707-0.2148-1.3398-0.6445c-0.2168-0.2598-0.4629-0.7129-0.7402-1.3564    l-5.501-12.5127v10.6953c0,0.8135,0.084,1.334,0.2529,1.5645c0.168,0.2295,0.4902,0.3447,0.9658,0.3447    c0.0918,0,0.2607,0,0.5059,0c0.2451-0.0146,0.4521-0.0234,0.6211-0.0234c0.4902,0,0.7363,0.2617,0.7363,0.7822    c0,0.5518-0.3994,0.8281-1.1963,0.8281c-0.3223,0-0.8086-0.042-1.46-0.126c-0.6523-0.085-1.1465-0.127-1.4844-0.127    c-0.3213,0-0.793,0.042-1.4141,0.127c-0.6211,0.084-1.085,0.126-1.3916,0.126c-0.7979,0-1.1963-0.2764-1.1963-0.8281    c0-0.5059,0.2607-0.7588,0.7822-0.7588c0.123,0,0.3066,0.0156,0.5518,0.0459c0.2451,0.0313,0.4141,0.0459,0.5068,0.0459    c0.5977,0,0.9805-0.3135,1.1494-0.9424c0.0615-0.2451,0.0918-0.7979,0.0918-1.6563v-7.8428c0-1.2578-0.0957-1.9863-0.2871-2.1855    c-0.1924-0.1992-0.8779-0.2988-2.0586-0.2988c-0.4912,0-0.7363-0.2607-0.7363-0.7822c0-0.5518,0.4004-0.8281,1.2012-0.8281    c0.2305,0,0.5771,0.043,1.0381,0.127c0.4619,0.084,0.8086,0.126,1.0391,0.126c0.2461,0,0.6084-0.042,1.085-0.126    c0.4775-0.084,0.8389-0.127,1.085-0.127c0.3389,0,0.623,0.1611,0.8545,0.4834c0.0918,0.123,0.2461,0.4297,0.4619,0.9199    l5.6553,12.8574v-10.5342c0-1.1191-0.1377-1.7715-0.4131-1.9551c-0.1543-0.1074-0.7979-0.1611-1.9326-0.1611    c-0.4912,0-0.7363-0.2607-0.7363-0.7822c0-0.5518,0.3994-0.8281,1.1963-0.8281c0.3369,0,0.8516,0.043,1.541,0.127    c0.6904,0.084,1.2041,0.126,1.541,0.126c0.3525,0,0.8701-0.042,1.5527-0.126c0.6816-0.084,1.1924-0.127,1.5293-0.127    C1169.7485,1552.1313,1170.0093,1552.4077,1170.0093,1552.9595z"
           id="path171" /><path
           d="M1187.5347,1552.9712c0,0.5137-0.2607,0.7705-0.7822,0.7705c-0.1377,0-0.3525-0.0264-0.6436-0.0801    c-0.292-0.0537-0.4912-0.0811-0.5986-0.0811c-0.6748,0-1.7939,1.2646-3.3574,3.7949c-0.8896,1.5645-1.7861,3.1279-2.6914,4.6924    v1.0117c0,0.292,0,0.6484,0,1.0693c0,0.4219,0,0.7021,0,0.8398c0,0.6289,0.1436,1.0469,0.4307,1.2529    c0.2881,0.207,0.9307,0.3105,1.9287,0.3105c0.6504,0,0.9756,0.2764,0.9756,0.8281c0,0.5215-0.2451,0.7822-0.7354,0.7822    c-0.3994,0-0.9971-0.042-1.7939-0.126c-0.7979-0.085-1.3955-0.127-1.7939-0.127c-0.3535,0-0.8857,0.042-1.5986,0.127    c-0.7129,0.084-1.2461,0.126-1.5986,0.126c-0.752,0-1.127-0.2607-1.127-0.7822c0-0.5361,0.3271-0.8047,0.9814-0.8047    c0.1533,0,0.3623,0.0156,0.6289,0.0459c0.2656,0.0313,0.4453,0.0459,0.5371,0.0459c0.791,0,1.1875-0.7432,1.1875-2.2305    c0-0.1533,0-0.3604,0-0.6211c0-0.2451,0-0.4141,0-0.5059v-1.1045l-4.7607-7.5439c-0.4141-0.6748-0.8516-1.0117-1.3115-1.0117    c-0.0918,0-0.2764,0.0156-0.5518,0.0459c-0.2764,0.0313-0.5215,0.0459-0.7363,0.0459c-0.4912,0-0.7363-0.2607-0.7363-0.7822    c0-0.5518,0.3223-0.8281,0.9668-0.8281c0.3369,0,0.8506,0.043,1.541,0.127c0.6895,0.084,1.2031,0.126,1.541,0.126    c0.3369,0,0.8506-0.042,1.541-0.126c0.6895-0.084,1.2031-0.127,1.541-0.127c0.6592,0,0.9883,0.2764,0.9883,0.8281    c0,0.5215-0.2988,0.7822-0.8965,0.7822c-0.1689,0-0.4102-0.0234-0.7246-0.0693s-0.5254-0.0684-0.6328-0.0684    c-0.2451,0-0.4063,0.0762-0.4824,0.2295c0.3525,0.8896,0.9424,1.9932,1.7705,3.3125c0.6748,1.0732,1.3496,2.1465,2.0244,3.2197    c0.6895-1.0732,1.3877-2.1387,2.0928-3.1973c0.8584-1.3486,1.4336-2.4688,1.7246-3.3574c-0.1377-0.1387-0.3906-0.207-0.7588-0.207    c-0.1992,0-0.4795,0.0225-0.8398,0.0684s-0.5938,0.0693-0.7012,0.0693c-0.4912,0-0.7363-0.2607-0.7363-0.7822    c0-0.2607,0.1074-0.4639,0.3223-0.6094s0.4521-0.2188,0.7129-0.2188c0.3379,0,0.8516,0.043,1.541,0.127    c0.6904,0.084,1.2041,0.126,1.541,0.126c0.3525,0,0.8701-0.042,1.5527-0.126s1.1924-0.127,1.5293-0.127    C1187.2046,1552.1313,1187.5347,1552.4116,1187.5347,1552.9712z"
           id="path173" /><path
           d="M1201.4263,1567.772c0,0.6738-0.2529,1.5713-0.7588,2.6904c-0.5674,1.2725-1.1348,1.9092-1.7021,1.9092    c-0.3066,0-0.46-0.1533-0.46-0.46c0-0.0771,0.249-0.502,0.7471-1.2764c0.499-0.7744,0.748-1.3838,0.748-1.8281    c0-0.2158-0.1846-0.3379-0.5518-0.3682c-0.5215-0.0615-0.8594-0.1387-1.0127-0.2305c-0.3672-0.1992-0.5518-0.5977-0.5518-1.1963    c0-0.4746,0.1611-0.8584,0.4834-1.1494c0.3213-0.291,0.7207-0.4375,1.1953-0.4375c0.583,0,1.0508,0.2529,1.4033,0.7598    C1201.2729,1566.6294,1201.4263,1567.1587,1201.4263,1567.772z M1200.9663,1558.9399c0,0.4141-0.1455,0.7666-0.4365,1.0576    c-0.292,0.292-0.6367,0.4375-1.0352,0.4375c-0.4141,0-0.7676-0.1455-1.0586-0.4375c-0.291-0.291-0.4365-0.6436-0.4365-1.0576    c0-0.3984,0.1455-0.7441,0.4365-1.0352s0.6445-0.4375,1.0586-0.4375c0.3984,0,0.7432,0.1465,1.0352,0.4375    C1200.8208,1558.1958,1200.9663,1558.5415,1200.9663,1558.9399z"
           id="path175" /><path
           d="M1212.6265,1561.6079c0,2.0391-0.8047,4.0791-2.415,6.1182c-1.7021,2.1309-3.5576,3.2197-5.5654,3.2656l-0.3682-0.2988    c0.0303-0.0771,0.6357-0.4834,1.8174-1.2188c1.3486-0.8438,2.3994-1.7559,3.1504-2.7373    c1.1045-1.4717,1.6563-3.1816,1.6563-5.1289c0-1.9629-0.5596-3.6719-1.6787-5.1289c-0.7363-0.9814-1.7793-1.8936-3.1279-2.7373    c-1.1816-0.7363-1.7871-1.165-1.8174-1.2881l0.2295-0.3223c2.0391,0.0771,3.918,1.1816,5.6357,3.3125    C1211.7983,1557.4829,1212.6265,1559.5376,1212.6265,1561.6079z"
           id="path177" /></g></g><g
       id="g5259"><path
         d="m 1510.3558,78.5605 c -6.059,24.6646 -12.8329,49.1635 -19.0197,73.798 -41.0575,30.1665 -82.3407,60.0319 -123.4358,90.1382 -3.101,2.0096 -5.7578,4.7643 -9.2877,6.0213 6.0739,-16.0241 13.0284,-31.7094 19.3809,-47.6281 1.0085,-2.6719 2.4537,-5.2009 2.9429,-8.0459 0.09,0.3236 0.1957,0.6473 0.3236,0.9709 2.2128,-7.1728 5.6224,-13.9317 8.3019,-20.9464 1.7159,-2.8676 1.8666,-6.6685 4.4707,-8.9416 38.7543,-28.473 77.6818,-56.7428 116.3232,-85.3664 z m -14.752,89.9952 c 0.8729,-0.3613 1.9869,-1.8064 2.8826,-0.8053 3.3268,7.5793 7.188,14.9402 10.9963,22.2937 -4.6514,3.8988 -9.905,7.0298 -14.7671,10.6727 -47.8163,33.7341 -95.6476,67.4757 -143.4714,101.2248 -6.0364,4.1547 -11.8394,8.6405 -18.0411,12.5317 -0.1656,1.0688 -0.053,2.0924 0.3462,3.0784 15.7982,30.5202 23.942,64.9844 23.2872,99.3432 -0.1582,9.2878 0.3536,18.6132 -0.7151,27.8634 0.1805,4.3203 -0.8732,8.5276 -1.2118,12.8102 -3.8159,30.7686 -14.2102,60.6491 -30.016,87.3157 -15.0455,25.4548 -34.7427,47.9366 -56.5922,67.7542 -44.1962,40.3875 -96.5283,70.11 -144.8563,105.0257 -23.1368,17.0853 -46.2433,35.5028 -61.9362,59.9943 -9.8373,15.0681 -15.3391,32.8986 -15.5048,50.9022 -0.3989,-0.1204 -1.1967,-0.3538 -1.5956,-0.4666 0.1279,-12.5544 -2.7698,-25.0786 -7.7975,-36.5641 -5.8557,-12.8855 -14.1801,-24.5743 -23.8818,-34.8405 -20.0357,-21.4883 -44.2186,-38.4608 -68.3036,-55.0418 -25.4248,-17.266 -51.2409,-33.9599 -76.1011,-52.0387 -1.6257,-1.1817 -3.1536,-2.5365 -4.9675,-3.4096 -37.1737,26.1849 -74.3399,52.3849 -111.4534,78.6526 0.3086,1.3247 1.543,2.0021 2.544,2.7773 14.3231,10.4243 28.6913,20.7808 43.0143,31.2051 3.0106,2.3408 6.3373,4.26 9.1448,6.8643 -31.2128,6.9094 -62.5535,13.2393 -93.8038,19.983 -30.6105,6.3525 -61.1609,13.0511 -91.7563,19.3132 -2.1902,0.7979 -4.5385,0.9107 -6.8417,0.9031 19.9755,-30.0837 40.4177,-59.8513 60.4985,-89.8597 17.8304,-26.3279 35.6007,-52.701 53.3935,-79.0591 2.8978,-4.3127 5.7503,-8.6706 8.9265,-12.7876 -0.0226,8.6706 0.5043,17.3412 0.4516,26.0118 0.9107,7.504 0.1731,15.1058 1.2193,22.5948 0.1505,9.491 0.3763,18.9594 0.8655,28.4354 2.0999,-0.429 3.7407,-1.8365 5.4266,-3.0558 29.2633,-20.6454 58.5191,-41.2908 87.7749,-61.9587 3.0181,-2.3558 6.5105,-4.117 9.205,-6.8868 -14.8047,-12.1102 -29.0751,-24.9355 -41.9832,-39.0629 -16.0994,-17.5595 -30.2869,-36.9931 -41.08,-58.2707 -12.2758,-24.1453 -20.3217,-50.5033 -23.1818,-77.4484 -2.1376,-13.9317 -1.4827,-28.1042 -1.6182,-42.1638 -0.1882,-13.9242 1.6031,-27.7655 4.2525,-41.4112 0.3613,-2.544 2.1376,-5.4568 0.5871,-7.8126 1.2117,-0.5494 1.287,0.986 1.3322,1.844 0.0451,-1.2946 0.0978,-2.5891 0.3914,-3.8461 7.075,-27.7203 19.8551,-54.116 38.1447,-76.1915 18.4777,-22.5496 43.0896,-40.4327 71.0132,-49.2463 12.4263,-3.7407 25.3494,-6.1868 38.3629,-6.0363 19.11,-0.3989 38.2049,3.8084 55.659,11.5533 26.787,11.8694 49.4346,32.0557 65.9252,56.1256 15.2639,22.0002 25.5828,47.2744 30.9944,73.4593 2.0698,9.6566 3.0332,19.4938 4.4858,29.2483 1.0989,-4.817 0.8204,-9.8899 1.829,-14.7446 4.9298,-36.9178 19.6744,-72.8421 43.767,-101.428 13.3446,-15.5047 29.0977,-29.173 47.3646,-38.5737 20.4573,-10.8232 43.6993,-16.4606 66.8585,-15.6176 30.6708,0.7376 60.5663,13.0285 84.0868,32.5298 11.0715,8.9341 20.8787,19.4411 29.1354,31.0245 1.8138,-0.5043 3.1837,-1.8591 4.7041,-2.9128 57.518,-40.6207 115.0962,-81.1664 172.6069,-121.7948 z m 18.741,39.5371 c 1.257,-0.7075 2.2881,-2.115 3.8009,-2.2279 21.0819,5.0353 42.0886,10.3867 63.2157,15.2413 -36.5565,25.0635 -73.354,49.7807 -109.9557,74.7765 -3.0934,2.1225 -6.1943,4.245 -9.3856,6.2094 -2.16,1.5505 -4.7493,-0.1731 -7.1127,0.0979 -5.2987,0.1656 -10.5297,-0.8204 -15.8208,-0.6925 -4.0267,0.0753 -8.076,-0.6849 -12.0651,0.0301 -2.9127,0.2108 -5.8632,0.2408 -8.7458,-0.1581 3.1761,-0.4892 6.4126,-0.0978 9.6189,-0.3763 -3.2515,-0.6623 -6.5782,-0.2032 -9.8447,-0.6548 -4.8546,-0.5946 -9.777,-0.0753 -14.6166,-0.7752 -3.8837,-0.7301 -7.8578,-0.2032 -11.7566,-0.7 -3.2213,-0.4666 -6.4803,-0.2258 -9.7017,-0.5344 44.151,-30.0385 88.2265,-60.1899 132.3698,-90.236 z"
         id="path79"
         style="fill:url(#SVGID_1_);stroke:url(#SVGID_2_);stroke-width:1.91589999;" /><path
         d="m 1510.3558,78.560472 c -6.059,24.664598 -12.8329,49.163498 -19.0197,73.797998 -41.0575,30.1665 -82.3407,60.0319 -123.4358,90.1382 -3.101,2.0096 -5.7578,4.7643 -9.2877,6.0213 6.0739,-16.0241 13.0284,-31.7094 19.3809,-47.6281 1.0085,-2.6719 2.4537,-5.2009 2.9429,-8.0459 0.09,0.3236 0.1957,0.6473 0.3236,0.9709 2.2128,-7.1728 5.6224,-13.9317 8.3019,-20.9464 1.7159,-2.8676 1.8666,-6.6685 4.4707,-8.9416 38.7543,-28.473 77.6818,-56.7428 116.3232,-85.366398 z m -14.752,89.995198 c 0.8729,-0.3613 1.9869,-1.8064 2.8826,-0.8053 3.3268,7.5793 7.188,14.9402 10.9963,22.2937 -4.6514,3.8988 -9.905,7.0298 -14.7671,10.6727 -47.8163,33.7341 -95.6476,67.4757 -143.4714,101.2248 -6.0364,4.1547 -11.8394,8.6405 -18.0411,12.5317 -0.1656,1.0688 -0.053,2.0924 0.3462,3.0784 15.7982,30.5202 23.942,64.9844 23.2872,99.3432 -0.1582,9.2878 0.3536,18.6132 -0.7151,27.8634 0.1805,4.3203 -0.8732,8.5276 -1.2118,12.8102 -3.8159,30.7686 -14.2102,60.6491 -30.016,87.3157 -15.0455,25.4548 -34.7427,47.9366 -56.5922,67.7542 -44.1962,40.3875 -96.5283,70.11 -144.8563,105.0257 -23.1368,17.0853 -46.2433,35.5028 -61.9362,59.9943 -9.8373,15.0681 -15.3391,32.8986 -15.5048,50.9022 -0.3989,-0.1204 -1.1967,-0.3538 -1.5956,-0.4666 0.1279,-12.5544 -2.7698,-25.0786 -7.7975,-36.5641 -5.8557,-12.8855 -14.1801,-24.5743 -23.8818,-34.8405 -20.0357,-21.4883 -44.2186,-38.4608 -68.3036,-55.0418 -25.4248,-17.266 -51.2409,-33.9599 -76.1011,-52.0387 -1.6257,-1.1817 -3.1536,-2.5365 -4.9675,-3.4096 -37.1737,26.1849 -74.3399,52.3849 -111.4534,78.6526 0.3086,1.3247 1.543,2.0021 2.544,2.7773 14.3231,10.4243 28.6913,20.7808 43.0143,31.2051 3.0106,2.3408 6.3373,4.26 9.1448,6.8643 -31.2128,6.9094 -62.5535,13.2393 -93.8038,19.983 -30.6105,6.3525 -61.1609,13.0511 -91.7563,19.3132 -2.1902,0.7979 -4.5385,0.9107 -6.8417,0.9031 19.9755,-30.0837 40.4177,-59.8513 60.4985,-89.8597 17.8304,-26.3279 35.6007,-52.701 53.3935,-79.0591 2.8978,-4.3127 5.7503,-8.6706 8.9265,-12.7876 -0.0226,8.6706 0.5043,17.3412 0.4516,26.0118 0.9107,7.504 0.1731,15.1058 1.2193,22.5948 0.1505,9.491 0.3763,18.9594 0.8655,28.4354 2.0999,-0.429 3.7407,-1.8365 5.4266,-3.0558 29.2633,-20.6454 58.5191,-41.2908 87.7749,-61.9587 3.0181,-2.3558 6.5105,-4.117 9.205,-6.8868 -14.8047,-12.1102 -29.0751,-24.9355 -41.9832,-39.0629 -16.0994,-17.5595 -30.2869,-36.9931 -41.08,-58.2707 -12.2758,-24.1453 -20.3217,-50.5033 -23.1818,-77.4484 -2.1376,-13.9317 -1.4827,-28.1042 -1.6182,-42.1638 -0.1882,-13.9242 1.6031,-27.7655 4.2525,-41.4112 0.3613,-2.544 2.1376,-5.4568 0.5871,-7.8126 1.2117,-0.5494 1.287,0.986 1.3322,1.844 0.0451,-1.2946 0.0978,-2.5891 0.3914,-3.8461 7.075,-27.7203 19.8551,-54.116 38.1447,-76.1915 18.4777,-22.5496 43.0896,-40.4327 71.0132,-49.2463 12.4263,-3.7407 25.3494,-6.1868 38.3629,-6.0363 19.11,-0.3989 38.2049,3.8084 55.659,11.5533 26.787,11.8694 49.4346,32.0557 65.9252,56.1256 15.2639,22.0002 25.5828,47.2744 30.9944,73.4593 2.0698,9.6566 3.0332,19.4938 4.4858,29.2483 1.0989,-4.817 0.8204,-9.8899 1.829,-14.7446 4.9298,-36.9178 19.6744,-72.8421 43.767,-101.428 13.3446,-15.5047 29.0977,-29.173 47.3646,-38.5737 20.4573,-10.8232 43.6993,-16.4606 66.8585,-15.6176 30.6708,0.7376 60.5663,13.0285 84.0868,32.5298 11.0715,8.9341 20.8787,19.4411 29.1354,31.0245 1.8138,-0.5043 3.1837,-1.8591 4.7041,-2.9128 57.518,-40.6207 115.0962,-81.1664 172.6069,-121.7948 z m 18.741,39.5371 c 1.257,-0.7075 2.2881,-2.115 3.8009,-2.2279 21.0819,5.0353 42.0886,10.3867 63.2157,15.2413 -36.5565,25.0635 -73.354,49.7807 -109.9557,74.7765 -3.0934,2.1225 -6.1943,4.245 -9.3856,6.2094 -2.16,1.5505 -4.7493,-0.1731 -7.1127,0.0979 -5.2987,0.1656 -10.5297,-0.8204 -15.8208,-0.6925 -4.0267,0.0753 -8.076,-0.6849 -12.0651,0.0301 -2.9127,0.2108 -5.8632,0.2408 -8.7458,-0.1581 3.1761,-0.4892 6.4126,-0.0978 9.6189,-0.3763 -3.2515,-0.6623 -6.5782,-0.2032 -9.8447,-0.6548 -4.8546,-0.5946 -9.777,-0.0753 -14.6166,-0.7752 -3.8837,-0.7301 -7.8578,-0.2032 -11.7566,-0.7 -3.2213,-0.4666 -6.4803,-0.2258 -9.7017,-0.5344 44.151,-30.0385 88.2265,-60.1899 132.3698,-90.236 z"
         id="path79-6"
         style="fill:url(#SVGID_1_-5);stroke:url(#SVGID_2_-1);stroke-width:1.91589999;filter:url(#filter5228)" /><path
         d="m 1510.3561,78.560912 c -6.059,24.664598 -12.8329,49.163488 -19.0197,73.797988 -41.0575,30.1665 -82.3407,60.0319 -123.4358,90.1382 -3.101,2.0096 -5.7578,4.7643 -9.2877,6.0213 6.0739,-16.0241 13.0284,-31.7094 19.3809,-47.6281 1.0085,-2.6719 2.4537,-5.2009 2.9429,-8.0459 0.09,0.3236 0.1957,0.6473 0.3236,0.9709 2.2128,-7.1728 5.6224,-13.9317 8.3019,-20.9464 1.7159,-2.8676 1.8666,-6.6685 4.4707,-8.9416 38.7543,-28.473 77.6818,-56.74279 116.3232,-85.366388 z m -14.752,89.995188 c 0.8729,-0.3613 1.9869,-1.8064 2.8826,-0.8053 3.3268,7.5793 7.188,14.9402 10.9963,22.2937 -4.6514,3.8988 -9.905,7.0298 -14.7671,10.6727 -47.8163,33.7341 -95.6476,67.4757 -143.4714,101.2248 -6.0364,4.1547 -11.8394,8.6405 -18.0411,12.5317 -0.1656,1.0688 -0.053,2.0924 0.3462,3.0784 15.7982,30.5202 23.942,64.9844 23.2872,99.3432 -0.1582,9.2878 0.3536,18.6132 -0.7151,27.8634 0.1805,4.3203 -0.8732,8.5276 -1.2118,12.8102 -3.8159,30.7686 -14.2102,60.6491 -30.016,87.3157 -15.0455,25.4548 -34.7426,47.9366 -56.5921,67.7542 -44.1962,40.3875 -96.5283,70.11 -144.8563,105.0257 -23.1368,17.0853 -46.2433,35.5028 -61.9362,59.9943 -9.8373,15.0681 -15.3391,32.8986 -15.5048,50.9022 -0.3989,-0.1204 -1.1967,-0.3538 -1.5956,-0.4666 0.1279,-12.5544 -2.7698,-25.0786 -7.7975,-36.5641 -5.8557,-12.8855 -14.1801,-24.5743 -23.8818,-34.8405 -20.03573,-21.4883 -44.21863,-38.4608 -68.30363,-55.0418 -25.42479,-17.266 -51.24089,-33.9599 -76.10109,-52.0387 -1.6257,-1.1817 -3.1536,-2.5365 -4.9675,-3.4096 -37.1737,26.1849 -74.33989,52.3849 -111.45339,78.6526 0.3086,1.3247 1.543,2.0021 2.544,2.7773 14.3231,10.4243 28.6913,20.7808 43.01429,31.2051 3.0106,2.3408 6.3373,4.26 9.1448,6.8643 -31.21279,6.9094 -62.55349,13.2393 -93.80379,19.983 -30.6105,6.3525 -61.1609,13.0511 -91.75629,19.3132 -2.1902,0.7979 -4.5385,0.9107 -6.8417,0.9031 19.9755,-30.0837 40.41769,-59.8513 60.49849,-89.8597 17.8304,-26.3279 35.6007,-52.701 53.3935,-79.0591 2.8978,-4.3127 5.7503,-8.6706 8.9265,-12.7876 -0.0226,8.6706 0.5043,17.3412 0.4516,26.0118 0.9107,7.504 0.1731,15.1058 1.2193,22.5948 0.1505,9.491 0.3763,18.9594 0.8655,28.4354 2.0999,-0.429 3.7407,-1.8365 5.4266,-3.0558 29.2633,-20.6454 58.51909,-41.2908 87.77489,-61.9587 3.0181,-2.3558 6.5105,-4.117 9.205,-6.8868 -14.8047,-12.1102 -29.0751,-24.9355 -41.9832,-39.0629 -16.09939,-17.5595 -30.28689,-36.9931 -41.07999,-58.2707 -12.2758,-24.1453 -20.3217,-50.5033 -23.1818,-77.4484 -2.1376,-13.9317 -1.4827,-28.1042 -1.6182,-42.1638 -0.1882,-13.9242 1.6031,-27.7655 4.2525,-41.4112 0.3613,-2.544 2.1376,-5.4568 0.5871,-7.8126 1.2117,-0.5494 1.287,0.986 1.3322,1.844 0.0451,-1.2946 0.0978,-2.5891 0.3914,-3.8461 7.075,-27.7203 19.8551,-54.116 38.1447,-76.1915 18.47769,-22.5496 43.08959,-40.4327 71.01319,-49.2463 12.4263,-3.7407 25.3494,-6.1868 38.3629,-6.0363 19.11,-0.3989 38.2049,3.8084 55.65899,11.5533 26.787,11.8694 49.4346,32.0557 65.92523,56.1256 15.2639,22.0002 25.5828,47.2744 30.9944,73.4593 2.0698,9.6566 3.0332,19.4938 4.4858,29.2483 1.0989,-4.817 0.8204,-9.8899 1.829,-14.7446 4.9298,-36.9178 19.6744,-72.8421 43.767,-101.428 13.3446,-15.5047 29.0977,-29.173 47.3646,-38.5737 20.4573,-10.8232 43.6993,-16.4606 66.8585,-15.6176 30.6708,0.7376 60.5663,13.0285 84.0868,32.5298 11.0714,8.9341 20.8786,19.4411 29.1353,31.0245 1.8138,-0.5043 3.1837,-1.8591 4.7041,-2.9128 57.518,-40.6207 115.0962,-81.1664 172.6069,-121.7948 z m 18.741,39.5371 c 1.257,-0.7075 2.2881,-2.115 3.8009,-2.2279 21.0819,5.0353 42.0886,10.3867 63.2157,15.2413 -36.5565,25.0635 -73.354,49.7807 -109.9557,74.7765 -3.0934,2.1225 -6.1943,4.245 -9.3856,6.2094 -2.16,1.5505 -4.7493,-0.1731 -7.1127,0.0979 -5.2987,0.1656 -10.5297,-0.8204 -15.8208,-0.6925 -4.0267,0.0753 -8.076,-0.6849 -12.0651,0.0301 -2.9127,0.2108 -5.8632,0.2408 -8.7458,-0.1581 3.1761,-0.4892 6.4126,-0.0978 9.6189,-0.3763 -3.2515,-0.6623 -6.5782,-0.2032 -9.8447,-0.6548 -4.8546,-0.5946 -9.777,-0.0753 -14.6166,-0.7752 -3.8837,-0.7301 -7.8578,-0.2032 -11.7566,-0.7 -3.2213,-0.4666 -6.4803,-0.2258 -9.7017,-0.5344 44.151,-30.0385 88.2265,-60.1899 132.3698,-90.236 z"
         id="path79-0"
         style="opacity:1;fill:url(#SVGID_1_-8);stroke:url(#SVGID_2_-5);stroke-width:1.91589999;filter:url(#filter4744)" /></g></g></svg>